<svg width="24" height="21" viewBox="0 0 24 21" fill="none" xmlns="http://www.w3.org/2000/svg">
<path d="M22.5194 8.59218C22.4213 8.57627 22.3221 8.56893 22.2228 8.57022H5.31992L5.6885 8.39879C6.04876 8.22827 6.37651 7.9962 6.65707 7.71307L11.3971 2.97307C12.0213 2.37715 12.1262 1.41848 11.6456 0.701645C11.0863 -0.0622296 10.0136 -0.228087 9.24971 0.331253C9.188 0.376467 9.12934 0.425753 9.07421 0.478788L0.502782 9.05022C-0.167076 9.71932 -0.167665 10.8047 0.501442 11.4746C0.501871 11.475 0.502353 11.4755 0.502782 11.4759L9.07421 20.0474C9.7446 20.7159 10.83 20.7144 11.4986 20.044C11.5512 19.9912 11.6003 19.9351 11.6456 19.8759C12.1262 19.1591 12.0213 18.2004 11.3971 17.6045L6.66564 12.8559C6.41412 12.6041 6.12494 12.393 5.8085 12.2302L5.29421 11.9988H22.1285C23.0042 12.0313 23.7725 11.4196 23.9371 10.5588C24.0886 9.62424 23.4539 8.74379 22.5194 8.59218Z" fill="white"/>
</svg>
