<svg width="293" height="180" viewBox="0 0 293 180" fill="none" xmlns="http://www.w3.org/2000/svg">
<g clip-path="url(#clip0)">
<path opacity="0.1" d="M292.999 115.501C293.004 120.373 292.414 125.228 291.24 129.958C290.846 131.549 290.387 133.11 289.865 134.639C289.225 136.524 288.484 138.373 287.646 140.179C287.223 141.091 286.776 141.986 286.305 142.865C286.312 147.861 285.281 152.805 283.277 157.383C279.653 165.597 273.193 172.239 265.073 176.099C259.989 178.519 254.433 179.79 248.801 179.823H55.6204C47.0247 179.842 38.5773 177.589 31.137 173.294C30.0374 172.659 28.9661 171.982 27.9229 171.264C25.658 169.703 23.53 167.952 21.562 166.031C18.8977 163.431 16.5506 160.526 14.5693 157.376C9.91436 150.001 7.44843 141.461 7.45708 132.745C2.74299 124.492 -0.00585938 114.605 -0.00585938 103.981C-0.00585938 90.5772 4.36245 78.3499 11.5393 69.0937C13.0355 67.1599 14.6745 65.3403 16.4425 63.6502C18.1869 61.9777 20.0618 60.4464 22.0496 59.0705C23.6394 57.9677 25.3016 56.9726 27.0249 56.0919C27.7438 55.7245 28.4653 55.382 29.1991 55.0618C29.8434 54.7763 30.4952 54.5107 31.1544 54.26C31.9455 53.9588 32.7465 53.6833 33.5575 53.4334C34.3684 53.1836 35.1686 52.9635 35.958 52.7732C37.1189 52.4902 38.2998 52.2602 39.5005 52.0831C40.4955 51.9367 41.4906 51.8349 42.4856 51.7555C43.2767 51.6992 44.0744 51.6661 44.8787 51.6562H45.3141C46.1997 51.6562 47.0803 51.6909 47.9535 51.7505C48.0455 51.5668 48.145 51.3806 48.2371 51.197C48.5853 50.5367 48.946 49.8764 49.3092 49.2286V49.2112C49.3714 49.0995 49.4336 48.9878 49.4983 48.8786C49.7918 48.3499 50.0978 47.8261 50.4113 47.3073C50.5556 47.0591 50.6974 46.8258 50.8441 46.59C50.8765 46.5329 50.9088 46.4783 50.9461 46.4212C51.0954 46.173 51.2471 45.9247 51.4014 45.6765C52.1692 44.4536 52.9677 43.2497 53.797 42.0649C53.8691 41.9631 53.9363 41.8638 54.0084 41.7646C54.1378 41.5809 54.2572 41.3997 54.4015 41.2185C54.7448 40.7394 55.098 40.2579 55.4537 39.7838C55.7025 39.4487 55.9513 39.1136 56.2199 38.7909C56.8667 37.9568 57.5309 37.1278 58.21 36.3087C58.8892 35.4895 59.6056 34.6654 60.3295 33.8587C60.429 33.747 60.5285 33.6378 60.633 33.5261L61.6952 32.3719C61.7475 32.3173 61.7923 32.2676 61.842 32.218C61.9689 32.0815 62.0908 31.9449 62.2276 31.8109C62.7973 31.2102 63.3819 30.6169 63.9689 30.0311C66.9677 27.058 70.1623 24.2883 73.5315 21.7406C73.6633 21.6363 73.7976 21.537 73.9295 21.4377C74.5613 20.9611 75.2032 20.492 75.845 20.0303C79.3758 17.5042 83.066 15.2075 86.8926 13.1546C87.1563 13.0057 87.425 12.8642 87.6961 12.7227C91.1277 10.9125 94.6564 9.29163 98.2661 7.86749C100.233 7.09138 102.235 6.36658 104.271 5.69307C105.62 5.25372 106.973 4.83423 108.344 4.45197C110.463 3.84465 112.609 3.29691 114.782 2.80874C121.182 1.37573 127.694 0.490499 134.245 0.162705C136.235 0.0584525 138.248 0.00632674 140.282 0.00632674C150.101 -0.00664379 159.882 1.22784 169.388 3.68C169.486 3.82821 169.621 3.94903 169.779 4.0311C169.937 4.11317 170.113 4.15379 170.291 4.14914H171.127C171.49 4.24594 171.851 4.34771 172.214 4.45197C174.242 5.03611 176.241 5.67239 178.212 6.36079L178.709 6.53951C183.572 8.26484 188.303 10.3388 192.866 12.745C196.979 14.9098 200.939 17.3513 204.72 20.0527C205.302 20.4697 205.876 20.8908 206.441 21.3161C207.128 20.8743 207.826 20.4531 208.536 20.0527C211.277 18.4957 214.189 17.2581 217.213 16.3641C223.536 14.497 230.226 14.2359 236.676 15.6045C244.948 17.3545 252.436 21.6984 258.483 27.8766C260.947 30.3963 263.141 33.1648 265.03 36.1374C265.167 36.3509 265.304 36.5668 265.436 36.7852C267.057 39.4252 268.45 42.1978 269.6 45.0733C269.643 45.1776 269.685 45.2794 269.722 45.3836C270.784 48.0746 271.641 50.8419 272.284 53.6618C272.314 53.8033 272.349 53.9472 272.379 54.0912C272.981 56.8202 273.39 59.5881 273.603 62.3744C273.603 62.4736 273.603 62.5754 273.623 62.6772C273.727 64.1185 273.78 65.5756 273.782 67.0484C273.782 68.3639 273.737 69.6696 273.655 70.9628C273.655 71.1043 273.635 71.2532 273.623 71.3972C273.6 71.7745 273.568 72.1418 273.536 72.5216C275.436 74.0499 277.214 75.723 278.854 77.5258C279.579 78.3151 280.281 79.1351 280.959 79.9856C283.026 82.569 284.841 85.3425 286.382 88.2688C290.581 96.2069 292.999 105.525 292.999 115.501Z" fill="#EB5757"/>
<path opacity="0.1" d="M264.889 164.357C264.889 169.999 259.029 175.279 248.802 179.826H55.621C46.6829 179.826 38.312 176.599 31.1376 170.972C29.3341 168.838 28.3838 166.626 28.3838 164.355C28.3838 158.358 35.0109 152.76 46.469 148.029L46.7924 147.9C50.0263 146.577 53.6409 145.329 57.5913 144.154C57.6908 144.125 57.7928 144.097 57.8923 144.063C61.0267 143.144 64.361 142.274 67.8951 141.451C68.007 141.427 68.1165 141.399 68.2284 141.379C69.5917 141.057 70.9823 140.756 72.4027 140.456L72.95 140.342C83.2862 138.202 95.0353 136.504 107.777 135.353H107.792C109.576 135.187 111.38 135.039 113.203 134.908C115.23 134.747 117.282 134.61 119.357 134.484C120.942 134.382 122.546 134.295 124.156 134.216C124.162 134.213 124.168 134.212 124.174 134.212C124.181 134.212 124.187 134.213 124.193 134.216C131.454 133.851 138.957 133.66 146.629 133.66C165.6 133.66 183.531 134.821 199.419 136.887C199.434 136.884 199.449 136.884 199.464 136.887C201.907 137.204 204.305 137.539 206.644 137.897C207.313 138.001 207.979 138.105 208.634 138.212C211.272 138.637 213.843 139.087 216.345 139.56C245.774 145.142 264.889 154.175 264.889 164.357Z" fill="#EB5757"/>
<path d="M216.799 60.3872C216.799 60.3872 214.167 59.3223 205.794 63.1524C197.42 66.9824 196.375 66.4984 194.209 65.9225C192.042 65.3466 190.833 65.1977 188.509 61.9981C188.509 61.9981 186.87 53.1342 185.276 51.759C183.681 50.3839 176.949 52.5434 176.949 52.5434C176.949 52.5434 168.867 54.3926 167.327 43.6074C167.327 43.6074 168.419 35.4856 166.932 32.9935C166.932 32.9935 169.937 34.2842 174.892 32.1992C179.848 30.1141 183.815 34.4456 183.815 34.4456C183.815 34.4456 185.059 37.6725 184.935 39.5987C184.81 41.5249 185.596 42.2472 187.96 41.3163C187.96 41.3163 189.121 39.6682 187.477 36.9427C185.833 34.2172 184.659 32.1893 185.116 30.0744C185.574 27.9596 186.895 25.0231 191.136 23.5561C195.378 22.0891 201.137 21.8186 203.901 20.6594C206.664 19.5002 207.346 18.7605 207.346 18.7605C207.346 18.7605 205.644 20.4608 209.652 27.6716C213.66 34.8825 211.105 38.01 211.105 38.01C211.105 38.01 208.973 43.0812 199.56 42.6692C199.56 42.6692 190.49 42.9993 195.435 46.8368C195.435 46.8368 198.602 46.1939 203.336 44.6922C208.07 43.1904 211.488 49.3885 212.336 53.7001C213.184 58.0117 216.799 60.3872 216.799 60.3872Z" fill="#EB5757"/>
<path d="M204.606 24.2214L204.656 24.2065C205.019 25.5817 200.967 31.1121 197.502 35.508L197.462 35.4758C202.348 29.2851 204.888 25.2863 204.606 24.2214Z" fill="#444053"/>
<path d="M197.531 35.3914L197.554 35.446C194.785 38.9558 191.305 43.1408 188.518 46.251C188.252 46.5464 187.989 46.8567 187.735 47.1744L187.655 47.1099C187.904 46.7922 188.175 46.4794 188.441 46.184C191.225 43.0862 194.76 38.9037 197.531 35.3914Z" fill="#444053"/>
<path d="M187.723 47.0304L187.778 47.1247C182.708 53.4419 182.372 63.2591 182.36 63.336L181.29 62.0949C181.302 62.0155 182.618 53.3923 187.723 47.0304Z" fill="#444053"/>
<path d="M210.93 56.9618C210.93 56.9618 204.959 53.859 200.292 54.976C195.625 56.093 185.13 51.0293 185.13 51.0293C185.13 51.0293 180.677 49.2248 179.782 47.167C179.782 47.167 176.724 43.9401 176.548 42.2746C176.371 40.609 173.398 36.4116 171.458 36.2502" stroke="#444053" stroke-miterlimit="10"/>
<path d="M210.052 59.9479C210.052 59.9479 207.042 57.9224 207.393 55.5643" stroke="#444053" stroke-miterlimit="10"/>
<path d="M205.435 62.5616C205.435 62.5616 201.128 61.0028 200.708 54.8866" stroke="#444053" stroke-miterlimit="10"/>
<path d="M198.491 64.1453C198.491 64.1453 194.377 60.7397 195.743 54.7874" stroke="#444053" stroke-miterlimit="10"/>
<path d="M190.136 62.4823C190.136 62.4823 187.399 56.7483 189.835 53.0176" stroke="#444053" stroke-miterlimit="10"/>
<path d="M210.987 53.1814C210.987 53.1814 207.875 54.1743 208.542 55.8026" stroke="#444053" stroke-miterlimit="10"/>
<path d="M207.231 47.5542C207.231 47.5542 203.064 48.8723 202.967 54.7526" stroke="#444053" stroke-miterlimit="10"/>
<path d="M201.42 46.184C201.42 46.184 197.627 50.8555 197.905 55.1001" stroke="#444053" stroke-miterlimit="10"/>
<path d="M194.778 48.0159C194.778 48.0159 191.011 51.6101 191.492 53.6083" stroke="#444053" stroke-miterlimit="10"/>
<path d="M192.506 46.7474C192.506 46.7474 188.974 47.3779 188.479 46.2212" stroke="#444053" stroke-miterlimit="10"/>
<path d="M187.917 42.493C187.917 42.493 189.701 44.8511 190.156 44.3224" stroke="#444053" stroke-miterlimit="10"/>
<path d="M205.609 41.0012C205.609 41.0012 196.703 41.6466 194.688 38.9658" stroke="#444053" stroke-miterlimit="10"/>
<path d="M186.054 30.6082C186.054 30.6082 190.23 39.5565 193.268 40.6959" stroke="#444053" stroke-miterlimit="10"/>
<path d="M190.427 26.3462C190.427 26.3462 192.992 34.5772 196.171 37.1463" stroke="#444053" stroke-miterlimit="10"/>
<path d="M209.356 34.2074C209.356 34.2074 202.584 37.1066 198.52 34.1726" stroke="#444053" stroke-width="0.75" stroke-miterlimit="10"/>
<path d="M196.457 24.5913C196.457 24.5913 198.004 30.6405 200.089 32.1025" stroke="#444053" stroke-width="0.75" stroke-miterlimit="10"/>
<path d="M208.333 27.4285C208.333 27.4285 204.527 28.8682 203.109 27.766" stroke="#444053" stroke-width="0.75" stroke-miterlimit="10"/>
<path d="M184.656 44.4688C184.656 44.4688 184.656 49.7434 183.218 50.1182" stroke="#444053" stroke-miterlimit="10"/>
<path d="M172.892 51.3023C172.892 51.3023 178.613 51.7987 181.243 48.8474" stroke="#444053" stroke-miterlimit="10"/>
<path d="M183.183 38.2384C183.183 38.2384 181.799 43.5876 177.983 45.0297" stroke="#444053" stroke-miterlimit="10"/>
<path d="M169.464 45.6677C169.464 45.6677 173.509 47.0702 176.989 43.4983" stroke="#444053" stroke-miterlimit="10"/>
<path d="M178.683 33.6389C178.683 33.6389 178.302 38.1814 175.827 40.3086" stroke="#444053" stroke-miterlimit="10"/>
<path d="M169.618 38.7449C169.618 38.7449 172.974 38.7672 173.76 37.675" stroke="#444053" stroke-miterlimit="10"/>
<path d="M193.89 55.9938H98.3145V104.134H193.89V55.9938Z" fill="#33323D"/>
<path d="M223.965 118.759H68.542V150.447H223.965V118.759Z" fill="#33323D"/>
<path d="M105.643 126.68H185.339L201.218 180H88.8486L105.643 126.68Z" fill="white"/>
<path d="M64.1143 99.8667V116.321V119.786V150.444H93.8864V121.196H198.621V150.444H228.393V119.786V116.321V99.8667H64.1143Z" fill="#504F60"/>
<path opacity="0.1" d="M228.393 99.8667H64.1143V116.319H228.393V99.8667Z" fill="#33323D"/>
<path opacity="0.8" d="M219.54 110.533C220.889 110.533 221.982 109.441 221.982 108.095C221.982 106.749 220.889 105.658 219.54 105.658C218.19 105.658 217.097 106.749 217.097 108.095C217.097 109.441 218.19 110.533 219.54 110.533Z" fill="#8CCF4D"/>
<path opacity="0.8" d="M208.547 110.533C209.897 110.533 210.99 109.441 210.99 108.095C210.99 106.749 209.897 105.658 208.547 105.658C207.198 105.658 206.104 106.749 206.104 108.095C206.104 109.441 207.198 110.533 208.547 110.533Z" fill="#FA5959"/>
<path d="M190.379 44.4142H101.826V96.8186H190.379V44.4142Z" fill="white"/>
<path d="M203.851 120.901C204.037 122.929 202.502 124.897 202.95 126.883C203.045 127.308 203.229 127.71 203.296 128.124C203.48 129.303 202.776 130.42 202.102 131.408L196.323 139.892C196.091 140.265 195.814 140.606 195.497 140.91C194.39 141.903 192.733 141.789 191.283 142.082C190.263 142.288 189.3 142.711 188.459 143.323C188.423 143.352 188.399 143.393 188.392 143.44C188.385 143.486 188.396 143.533 188.422 143.571C188.661 143.898 188.979 144.161 189.345 144.334C189.712 144.507 190.117 144.586 190.522 144.564C190.673 144.762 190.522 145.06 190.313 145.199C190.002 145.413 189.566 145.47 189.514 145.996C189.492 146.179 189.529 146.364 189.619 146.525C189.853 146.88 190.216 147.131 190.631 147.225C192.621 147.835 194.793 146.763 196.291 145.304C197.788 143.844 198.863 142.002 200.333 140.515C201.146 139.694 202.074 138.989 202.91 138.192C204.582 136.603 205.895 134.67 207.139 132.731C207.55 132.169 207.86 131.54 208.055 130.872C208.209 130.212 208.139 129.514 208.318 128.859C208.552 128.003 209.182 127.32 209.704 126.6C210.731 125.19 211.415 123.468 211.279 121.73C211.142 119.992 210.067 118.282 208.425 117.691C207.916 117.489 207.356 117.455 206.826 117.595C206.152 117.801 205.657 118.357 205.196 118.888L204.099 120.151C203.826 120.431 203.609 120.76 203.46 121.122C203.389 121.304 203.373 121.503 203.413 121.694C203.453 121.885 203.548 122.061 203.686 122.199" fill="#FBBEBE"/>
<path opacity="0.05" d="M203.851 120.901C204.037 122.929 202.502 124.897 202.95 126.883C203.045 127.308 203.229 127.71 203.296 128.124C203.48 129.303 202.776 130.42 202.102 131.408L196.323 139.892C196.091 140.265 195.814 140.606 195.497 140.91C194.39 141.903 192.733 141.789 191.283 142.082C190.263 142.288 189.3 142.711 188.459 143.323C188.423 143.352 188.399 143.393 188.392 143.44C188.385 143.486 188.396 143.533 188.422 143.571C188.661 143.898 188.979 144.161 189.345 144.334C189.712 144.507 190.117 144.586 190.522 144.564C190.673 144.762 190.522 145.06 190.313 145.199C190.002 145.413 189.566 145.47 189.514 145.996C189.492 146.179 189.529 146.364 189.619 146.525C189.853 146.88 190.216 147.131 190.631 147.225C192.621 147.835 194.793 146.763 196.291 145.304C197.788 143.844 198.863 142.002 200.333 140.515C201.146 139.694 202.074 138.989 202.91 138.192C204.582 136.603 205.895 134.67 207.139 132.731C207.55 132.169 207.86 131.54 208.055 130.872C208.209 130.212 208.139 129.514 208.318 128.859C208.552 128.003 209.182 127.32 209.704 126.6C210.731 125.19 211.415 123.468 211.279 121.73C211.142 119.992 210.067 118.282 208.425 117.691C207.916 117.489 207.356 117.455 206.826 117.595C206.152 117.801 205.657 118.357 205.196 118.888L204.099 120.151C203.826 120.431 203.609 120.76 203.46 121.122C203.389 121.304 203.373 121.503 203.413 121.694C203.453 121.885 203.548 122.061 203.686 122.199" fill="black"/>
<path d="M208.226 173.1C206.963 173.867 205.39 173.916 203.923 173.735C203.674 173.708 203.408 173.69 203.256 173.871C203.037 174.137 203.296 174.524 203.562 174.738C204.429 175.385 205.447 175.803 206.52 175.952C207.477 176.085 208.444 176.149 209.41 176.143C212.047 176.187 214.699 176.232 217.311 175.852C217.462 175.841 217.609 175.798 217.742 175.726C217.91 175.608 218.027 175.43 218.067 175.229C218.249 174.554 217.903 173.824 217.383 173.355C216.863 172.886 216.194 172.623 215.54 172.362L213.246 171.471C212.707 171.26 211.843 170.707 211.256 170.749C210.184 170.836 209.137 172.568 208.226 173.1Z" fill="#3F3D56"/>
<path opacity="0.05" d="M208.226 173.1C206.963 173.867 205.39 173.916 203.923 173.735C203.674 173.708 203.408 173.69 203.256 173.871C203.037 174.137 203.296 174.524 203.562 174.738C204.429 175.385 205.447 175.803 206.52 175.952C207.477 176.085 208.444 176.149 209.41 176.143C212.047 176.187 214.699 176.232 217.311 175.852C217.462 175.841 217.609 175.798 217.742 175.726C217.91 175.608 218.027 175.43 218.067 175.229C218.249 174.554 217.903 173.824 217.383 173.355C216.863 172.886 216.194 172.623 215.54 172.362L213.246 171.471C212.707 171.26 211.843 170.707 211.256 170.749C210.184 170.836 209.137 172.568 208.226 173.1Z" fill="black"/>
<path d="M209.826 142.705C208.873 143.973 207.883 145.435 208.119 147.006C208.246 147.853 208.721 148.6 209.07 149.382C209.506 150.458 209.828 151.576 210.032 152.718C210.391 154.379 210.749 156.044 210.968 157.73C211.216 159.633 210.047 165.141 209.938 167.06C209.91 167.522 209.858 168.023 209.535 168.356C209.408 168.487 209.239 168.604 209.184 168.766C209.149 168.93 209.176 169.101 209.259 169.247C209.799 170.461 210.901 171.362 212.124 171.878C213.348 172.394 216.326 173.281 217.655 173.328C217.831 173.349 218.01 173.325 218.174 173.258C218.354 173.151 218.495 172.991 218.577 172.799C219.538 170.97 218.615 164.456 218.63 162.389C218.63 160.651 219.05 158.953 218.975 157.231C218.913 155.848 218.543 154.5 218.408 153.12C218.187 150.859 218.602 148.59 219.02 146.356C219.339 144.646 219.657 142.933 220.065 141.24C220.314 140.21 220.602 139.168 221.172 138.262C221.622 137.549 222.234 136.956 222.749 136.276C224.176 134.409 224.81 132.057 224.513 129.728C224.483 129.499 221.199 130.559 220.913 130.683C219.735 131.183 218.651 131.88 217.707 132.744C216.96 133.464 216.351 134.429 215.684 135.238C214.744 136.38 213.816 137.531 212.901 138.691C211.861 140.023 210.836 141.361 209.826 142.705Z" fill="#464353"/>
<path opacity="0.05" d="M209.826 142.623C208.873 143.891 207.883 145.353 208.119 146.927C208.246 147.771 208.721 148.518 209.07 149.3C209.505 150.376 209.828 151.494 210.032 152.636C210.391 154.297 210.749 155.962 210.968 157.648C211.216 159.552 210.047 165.062 209.938 166.981C209.91 167.44 209.858 167.944 209.535 168.274C209.408 168.406 209.239 168.522 209.184 168.684C209.146 168.853 209.173 169.03 209.259 169.18C209.799 170.391 210.901 171.295 212.124 171.809C213.348 172.323 216.326 172.802 217.655 172.844C217.831 172.865 218.01 172.841 218.174 172.774C218.354 172.667 218.495 172.507 218.577 172.315C219.538 170.486 218.615 164.387 218.63 162.322C218.63 160.584 219.05 158.884 218.975 157.161C218.913 155.779 218.543 154.431 218.408 153.051C218.187 150.789 218.602 148.521 219.02 146.289C219.339 144.576 219.657 142.864 220.065 141.171C220.314 140.141 220.602 139.098 221.172 138.192C221.622 137.482 222.234 136.886 222.749 136.221C224.175 134.354 224.808 132.002 224.513 129.673C224.483 129.442 221.199 130.502 220.913 130.629C219.734 131.129 218.649 131.828 217.707 132.694C216.96 133.416 216.351 134.379 215.684 135.176C214.744 136.318 213.816 137.47 212.901 138.631C211.861 139.955 210.836 141.286 209.826 142.623Z" fill="black"/>
<path d="M199.206 114.777C202.164 114.777 204.561 112.385 204.561 109.433C204.561 106.482 202.164 104.089 199.206 104.089C196.248 104.089 193.85 106.482 193.85 109.433C193.85 112.385 196.248 114.777 199.206 114.777Z" fill="#FBBEBE"/>
<path d="M204.027 109.21C204.522 109.998 205.17 110.679 205.934 111.212C206.697 111.745 207.561 112.119 208.472 112.313L208.069 113.77C207.373 116.284 206.577 118.943 204.644 120.685C204.855 119.834 204.582 118.918 204.099 118.186C203.583 117.473 202.971 116.835 202.281 116.289L199.198 113.613C199.107 113.546 199.028 113.461 198.967 113.365C198.892 113.177 198.892 112.967 198.967 112.779C199.36 111.56 200.482 110.793 201.39 109.974C201.847 109.547 202.255 109.072 202.609 108.557C203.241 107.681 203.621 108.557 204.027 109.21Z" fill="#FBBEBE"/>
<path d="M192.149 104.062L192.029 103.069C192.875 103.287 193.676 102.572 194.216 101.828C194.756 101.083 195.258 100.209 196.082 99.9016C197.077 99.5243 198.141 100.127 199.097 100.624C200.168 101.219 201.343 101.602 202.559 101.753C202.753 101.76 202.946 101.792 203.132 101.848C203.753 102.069 204.05 102.84 204.139 103.553C204.229 104.265 204.204 105.01 204.512 105.64C204.744 106.117 205.144 106.472 205.388 106.941C206.042 108.207 205.41 109.935 206.102 111.176L204.385 109.605C204.226 109.461 204.005 109.312 203.833 109.433C203.661 109.555 203.686 109.739 203.629 109.905C203.462 110.401 202.853 110.54 202.408 110.349C201.962 110.158 201.641 109.736 201.316 109.356C200.557 108.463 199.654 107.678 198.579 107.296C198.114 107.118 197.616 107.041 197.119 107.071C196.622 107.1 196.137 107.236 195.696 107.467C194.895 107.919 194.308 108.972 193.328 109.009C191.982 109.058 191.422 106.559 190.798 105.571C191.025 105.399 191.185 105.154 191.25 104.876C191.314 104.599 191.279 104.308 191.151 104.054C191.261 104.012 192.131 103.9 192.149 104.062Z" fill="#464353"/>
<path d="M214.473 173.057C213.414 173.999 212.04 174.51 210.622 174.489C210.261 174.489 209.761 174.559 209.759 174.919C209.765 175.026 209.801 175.129 209.863 175.217C210.312 175.961 211.021 176.515 211.853 176.771C212.625 177.004 213.45 176.964 214.256 176.925L216.607 176.803C217.05 176.778 217.495 176.756 217.938 176.701C218.381 176.646 218.859 176.555 219.321 176.488C220.455 176.326 221.601 176.272 222.744 176.326C223.048 176.339 223.399 176.326 223.588 176.098C223.777 175.87 223.675 175.458 223.605 175.127C223.466 174.447 223.605 173.735 223.476 173.052C223.249 171.853 222.217 170.937 221.078 170.503C220.02 170.101 218.145 169.642 217.142 170.309C216.067 171.029 215.421 172.201 214.473 173.057Z" fill="#3F3D56"/>
<path d="M216.801 132.942C217.01 133.935 217.963 134.68 217.993 135.673C218.015 136.477 217.438 137.162 217.025 137.845C216.631 138.56 216.298 139.307 216.03 140.079C215.245 142.081 214.272 144.005 213.125 145.825C212.572 146.696 211.955 147.644 212.082 148.67C212.169 149.148 212.337 149.608 212.58 150.03L214.234 153.309C214.597 153.964 214.881 154.66 215.08 155.381C215.222 156.005 215.237 156.65 215.329 157.285C215.59 159.296 216.535 161.321 215.978 163.27C215.928 163.439 215.754 163.642 215.622 163.518C216.167 164.536 216.617 165.564 216.565 166.718C216.543 167.323 216.356 167.959 216.582 168.52C216.71 168.738 216.795 168.979 216.831 169.23C216.831 169.394 216.754 169.55 216.737 169.726C216.692 170.19 217.117 170.578 217.562 170.719C218.008 170.861 218.488 170.856 218.936 170.99C219.799 171.238 220.411 171.983 221.15 172.499C221.898 173.017 222.782 173.304 223.692 173.325C223.821 173.339 223.951 173.313 224.065 173.251C224.13 173.194 224.183 173.125 224.219 173.046C224.255 172.968 224.274 172.883 224.274 172.797C224.314 172.386 224.252 171.971 224.093 171.59C223.934 171.208 223.684 170.872 223.364 170.61C223.225 170.521 223.109 170.4 223.028 170.257C222.986 170.13 222.975 169.995 222.996 169.863C223.13 168.058 223.097 166.245 222.898 164.447C222.809 163.877 222.78 163.3 222.811 162.724C222.861 162.245 223.005 161.768 222.951 161.289C222.896 160.81 222.655 160.378 222.51 159.916C222.262 159.097 222.326 158.219 222.299 157.36C222.254 155.87 221.913 154.411 221.573 152.961C221.441 152.393 221.291 151.795 220.886 151.373C220.543 151.015 219.988 150.67 220.117 150.194C220.188 150.017 220.295 149.857 220.431 149.725C220.591 149.524 220.709 149.294 220.777 149.047C220.845 148.799 220.862 148.541 220.826 148.287C220.972 148.326 221.126 148.312 221.263 148.249C221.399 148.185 221.509 148.076 221.573 147.94C224.262 146.676 226.436 144.145 227.394 141.335C227.447 141.127 227.531 140.929 227.642 140.746C227.891 140.399 228.324 140.25 228.707 140.056C229.911 139.453 230.745 138.319 231.508 137.209C231.954 136.564 232.396 135.899 232.588 135.142C232.693 134.652 232.743 134.153 232.737 133.652L232.804 131.066C232.818 130.899 232.801 130.73 232.755 130.569C232.691 130.415 232.596 130.275 232.476 130.16C231.746 129.385 230.788 128.863 229.74 128.67C229.033 128.544 228.312 128.569 227.598 128.509C226.212 128.395 224.844 127.968 223.458 128.067C221.279 128.226 219.341 129.733 218.314 131.657C217.953 132.344 217.575 132.942 216.801 132.942Z" fill="#464353"/>
<path d="M204.711 116.123C204.742 116.522 204.689 116.923 204.554 117.299C204.385 117.662 203.957 117.942 203.586 117.796C203.698 117.548 203.4 117.252 203.124 117.284C202.987 117.315 202.86 117.378 202.753 117.468C202.647 117.559 202.564 117.674 202.512 117.803C202.326 118.172 202.264 118.591 202.335 118.997C202.422 119.494 202.716 119.99 202.639 120.487C202.576 120.908 202.266 121.33 202.432 121.728C202.539 121.906 202.674 122.067 202.83 122.204C203.049 122.472 203.156 122.813 203.13 123.157C203.103 123.501 202.945 123.822 202.688 124.053L206.863 124.135C206.711 124.833 207.022 125.545 207.38 126.163C208.383 127.862 209.765 129.306 211.421 130.383C213.076 131.459 214.958 132.139 216.92 132.369C216.814 132.431 216.724 132.516 216.655 132.618C216.585 132.719 216.54 132.835 216.521 132.956C216.502 133.077 216.51 133.201 216.544 133.319C216.579 133.437 216.64 133.546 216.721 133.637C217.06 133.972 217.634 133.93 218.06 133.712C218.485 133.493 218.821 133.133 219.209 132.855C219.893 132.369 220.73 132.143 221.567 132.22C222.09 132.27 222.597 132.438 223.122 132.468C224.669 132.55 225.998 131.441 227.478 130.979C228.562 130.646 229.789 130.646 230.712 129.971C231.105 129.681 231.426 129.204 231.311 128.73C231.214 128.458 231.061 128.209 230.861 128C230.336 127.325 230.028 126.511 229.655 125.744C228.91 124.224 227.887 122.856 226.637 121.713C225.696 120.889 224.698 120.132 223.652 119.446C223.397 119.257 223.126 119.091 222.841 118.95C222.461 118.827 222.09 118.676 221.731 118.501C221.234 118.193 220.958 117.649 220.582 117.21C219.754 116.247 218.482 115.803 217.463 115.046C216.778 114.549 216.176 113.869 215.358 113.623C214.962 113.504 214.54 113.494 214.142 113.375C213.241 113.102 212.584 112.303 211.699 111.98C210.997 111.732 210.226 111.791 209.485 111.699C208.669 111.599 207.89 111.303 207.213 110.838C206.989 110.657 206.737 110.513 206.467 110.411C205.35 110.071 205.258 112.149 205.154 112.871C204.987 113.976 204.711 115.038 204.711 116.123Z" fill="#EB5757"/>
<path d="M205.801 123.098C205.987 125.126 204.452 127.092 204.9 129.08C204.995 129.504 205.179 129.907 205.246 130.321C205.433 131.5 204.726 132.617 204.052 133.603L198.273 142.067C198.041 142.439 197.764 142.781 197.447 143.085C196.34 144.078 194.683 143.963 193.233 144.256C192.214 144.463 191.251 144.886 190.41 145.497C190.373 145.526 190.349 145.568 190.342 145.614C190.335 145.66 190.346 145.707 190.372 145.746C190.611 146.073 190.928 146.336 191.295 146.509C191.662 146.683 192.067 146.762 192.472 146.738C192.624 146.94 192.472 147.235 192.263 147.374C191.952 147.59 191.517 147.647 191.464 148.173C191.443 148.356 191.479 148.541 191.569 148.702C191.804 149.057 192.166 149.307 192.581 149.402C194.571 150.012 196.743 148.94 198.241 147.481C199.738 146.021 200.813 144.179 202.286 142.692C203.099 141.871 204.027 141.166 204.86 140.369C206.535 138.78 207.833 136.847 209.089 134.908C209.5 134.346 209.809 133.717 210.005 133.049C210.159 132.389 210.089 131.691 210.269 131.036C210.502 130.18 211.132 129.495 211.654 128.777C212.682 127.367 213.366 125.645 213.229 123.907C213.092 122.17 212.017 120.459 210.376 119.869C209.867 119.665 209.306 119.631 208.776 119.772C208.104 119.978 207.607 120.534 207.147 121.065L206.049 122.328C205.776 122.607 205.56 122.937 205.413 123.299C205.342 123.48 205.325 123.679 205.365 123.869C205.404 124.06 205.499 124.235 205.637 124.374" fill="#FBBEBE"/>
<path d="M208.726 114.765C207.965 114.81 207.129 114.884 206.592 115.425C206.368 115.674 206.187 115.957 206.055 116.264C205.535 117.324 205.027 118.431 204.99 119.61C204.958 120.554 205.239 121.474 205.375 122.408C205.495 123.182 205.191 123.972 205.127 124.756C206.07 124.468 207.313 124.076 208.169 123.589C208.73 123.223 209.326 122.914 209.948 122.666C210.856 122.366 212.381 122.882 213.236 123.306C213.284 122.701 212.831 121.651 212.878 121.045C212.886 120.792 212.931 120.541 213.013 120.3C213.141 120.046 213.294 119.804 213.468 119.578C213.798 119.045 213.95 118.422 213.902 117.797C213.854 117.173 213.609 116.58 213.202 116.103C212.438 115.244 211.239 114.921 210.097 114.79C209.377 114.706 208.652 114.68 207.928 114.713" fill="#EB5757"/>
<path d="M96.0234 97.3995L91.1177 90.3003C91.1177 90.3003 91.0257 88.5429 90.7048 88.1334C90.3839 87.7238 90.6351 86.8104 90.6351 86.8104C90.6351 86.8104 90.9809 86.3139 90.6824 86.2618C90.3839 86.2097 90.6351 85.0976 90.6351 85.0976L90.6127 83.3179C90.6127 83.3179 90.8889 81.6052 90.66 81.1956C90.5924 81.0844 90.5585 80.9561 90.5625 80.8262C90.5665 80.6962 90.6081 80.5702 90.6824 80.4633C90.6824 80.4633 90.956 79.4829 90.6824 79.2222C90.4087 78.9616 90.4759 77.4425 90.5431 76.2312C90.6102 75.0199 90.063 74.3373 90.063 74.156C90.063 73.9748 88.2519 72.1926 88.2519 72.0313C88.2519 71.8699 87.1051 71.2097 86.4161 71.0384C85.727 70.8671 85.3862 70.7182 85.4086 70.6263C85.431 70.5345 84.3314 70.1721 84.3314 70.1721C84.3314 70.1721 83.3687 70.1026 83.0005 69.6235C82.6323 69.1445 81.5079 69.0055 81.4806 69.0005L81.4582 68.9062C81.4582 68.8714 81.4457 68.8367 81.4383 68.8019C81.5291 68.6575 81.6121 68.5084 81.687 68.3551L81.7517 68.2161C82.1546 68.2187 82.5484 68.0964 82.8786 67.8661C83.0412 67.7316 83.1741 67.5649 83.2687 67.3764C83.3634 67.188 83.4177 66.982 83.4284 66.7715C83.448 66.3495 83.3553 65.9298 83.1597 65.5552C82.9582 65.1456 82.6622 64.7187 82.7667 64.2719C82.8115 64.0808 82.9259 63.912 82.9856 63.7233C83.0747 63.355 83.0158 62.9666 82.8214 62.6411C82.6473 62.3109 82.406 62.018 82.2119 61.6978C81.9659 61.2879 81.8012 60.8345 81.7268 60.3624C81.713 60.1112 81.6531 59.8647 81.5502 59.6351C81.4461 59.4733 81.3088 59.3354 81.1472 59.2305C80.4294 58.7196 79.5633 58.4579 78.682 58.4859C78.0576 58.5057 77.4381 58.6745 76.8162 58.5976C76.4457 58.534 76.0812 58.4393 75.7266 58.3146C74.958 58.0862 74.0699 57.9944 73.4007 58.4337C72.7315 58.8731 72.4653 59.7369 72.0101 60.4195C71.6096 61.0152 71.015 61.5166 70.7165 62.157C70.7165 62.157 70.7165 62.1322 70.7165 62.1223C70.6414 62.2681 70.5837 62.4222 70.5449 62.5815C70.4595 63.0872 70.4944 63.6059 70.6469 64.0957C70.6805 64.3593 70.813 64.6005 71.0175 64.7708C71.2439 64.9173 71.5549 64.8825 71.8185 64.9297L71.7887 65.0587C71.5202 66.3419 71.7449 67.6788 72.4181 68.8043C73.0913 69.9299 74.1639 70.7618 75.4231 71.1352C75.4231 71.1824 75.4231 71.227 75.4231 71.2742C75.4226 71.4053 75.4143 71.5363 75.3983 71.6664C75.3983 71.6664 73.0922 71.1923 72.4728 71.5125C71.8534 71.8327 70.6394 72.0834 70.4553 72.2572C70.2712 72.4309 69.8135 72.3043 69.4005 73.3766C68.9876 74.4489 68.9428 75.5436 68.4055 76.0475C67.8682 76.5514 67.6045 76.8914 67.5796 77.2563C67.5547 77.6212 67.6492 77.7131 67.4428 77.8272C67.2363 77.9414 66.9452 78.4205 67.0298 78.6042C67.0615 78.7297 67.0547 78.8619 67.0103 78.9835C66.966 79.1052 66.8861 79.2108 66.7811 79.2868C66.6723 79.3631 66.5854 79.4664 66.5291 79.5866C66.4728 79.7068 66.449 79.8397 66.4601 79.9719C66.4601 79.9719 66.3208 80.4683 65.9999 80.5899C65.679 80.7116 65.4726 81.4562 65.4726 81.4562L64.4327 82.6477L62.3729 80.374C62.2182 80.204 62.0024 80.1021 61.7726 80.0905C61.5428 80.0789 61.3177 80.1585 61.1465 80.3119L60.1341 81.2204C59.7439 81.315 59.3912 81.5242 59.1216 81.8211C58.9022 82.0482 58.7245 82.312 58.5967 82.6005L58.0444 83.097C57.87 83.3126 57.7632 83.5749 57.7375 83.8509C57.7119 84.1269 57.7684 84.4043 57.9002 84.6483L59.2211 86.1054V86.1178C58.7531 86.1589 58.3084 86.3397 57.9449 86.6366C55.9747 88.3741 55.9548 89.9702 56.2484 90.7C56.5419 91.4297 59.0445 94.2371 59.0445 94.2371C59.0445 94.2371 60.4973 96.1211 62.5943 97.1215L62.5794 97.1388C62.5363 97.1838 62.4956 97.231 62.4575 97.2803L62.4227 97.325L62.3904 97.3697L62.353 97.4243C62.343 97.4386 62.3339 97.4535 62.3257 97.469L62.2859 97.5335C62.2766 97.5479 62.2683 97.5628 62.261 97.5782C62.2436 97.608 62.2287 97.6378 62.2137 97.6675C62.2083 97.6772 62.2033 97.6872 62.1988 97.6973C62.1789 97.737 62.159 97.7768 62.1416 97.8214L62.1217 97.8661C62.1093 97.8959 62.0993 97.9257 62.0869 97.958C62.0791 97.9774 62.0725 97.9973 62.067 98.0175L62.0371 98.1069C62.029 98.1279 62.0224 98.1495 62.0172 98.1714C62.0172 98.2037 61.9973 98.236 61.9898 98.2707C61.9824 98.3055 61.9774 98.3104 61.9724 98.3328C61.9675 98.3551 61.9476 98.4395 61.9376 98.4966C61.9376 98.5165 61.9376 98.5388 61.9252 98.5611C61.9127 98.5835 61.9127 98.6381 61.9053 98.6778C61.8978 98.7175 61.9053 98.7324 61.9053 98.7622L61.8903 98.8739V98.9633C61.8903 99.0054 61.8903 99.0477 61.8779 99.0923C61.8655 99.137 61.8779 99.1445 61.8779 99.1718C61.8779 99.2437 61.8779 99.3157 61.8779 99.3927C61.8331 102.064 61.9898 102.451 61.9898 102.451C62.0922 102.697 62.2591 102.912 62.4731 103.072C62.6871 103.233 62.9403 103.333 63.2063 103.362C63.3368 103.372 63.4681 103.365 63.5969 103.342C64.7909 103.136 67.5771 102.657 68.5722 102.845C69.1667 102.955 70.2638 102.791 71.0449 102.644L71.2514 102.605L71.3932 103.059L71.8459 102.935L72.2315 103.156L72.4803 103.297C72.933 104.826 74.7689 104.305 74.7689 104.305L75.2042 104.553L79.6298 104.667C80.1265 104.966 80.6514 105.215 81.197 105.412C81.269 105.436 81.3432 105.452 81.4184 105.462C81.8321 105.495 82.2475 105.503 82.6622 105.484C83.0005 105.484 83.2617 105.462 83.2617 105.462C83.2617 105.462 83.2169 104.263 83.1523 102.92C84.5241 102.886 85.8928 102.774 87.2519 102.585C89.6152 102.173 90.6003 100.028 90.9635 98.8813C91.0722 99.3498 91.1495 99.8249 91.1948 100.304C91.2914 100.725 91.4144 101.139 91.563 101.545C91.6897 101.869 91.8569 102.176 92.0605 102.458C93.8019 101.865 92.7471 100.969 92.3814 100.587C92.0158 100.204 92.6302 99.8792 92.6302 99.8792C92.6302 99.8792 93.1128 99.559 93.0655 99.2636C93.0183 98.9682 92.9959 98.648 94.5581 98.6704C96.1204 98.6927 96.0234 97.3995 96.0234 97.3995ZM71.8136 82.8264C71.8335 82.9555 72.0623 84.3629 72.2464 84.7327C72.3014 84.9769 72.319 85.228 72.2987 85.4774C71.3757 85.4029 70.413 85.3632 70.413 85.3632C70.4401 85.3968 70.4573 85.4372 70.4628 85.4799L70.316 85.4476L70.107 85.398L71.8086 82.814L71.8136 82.8264ZM68.4403 88.1781L70.0399 88.4263L70.1742 88.4461C70.129 88.6921 70.1015 88.9409 70.0921 89.1908C70.0921 89.2156 70.1269 89.2429 70.1792 89.2752C70.1569 89.4005 70.1469 89.5277 70.1493 89.655C70.1742 89.7791 70.9205 90.0521 71.7787 90.278C71.7663 90.3252 71.7563 90.3698 71.7439 90.4096C70.9852 90.0124 69.7936 89.8262 69.6568 89.5309C69.52 89.2355 65.4601 87.8206 65.4601 87.8206L65.0571 87.6196L66.1243 87.8206L66.4179 87.7908C67.0829 87.9635 67.7585 88.0928 68.4403 88.1781Z" fill="url(#paint0_linear)"/>
<path d="M90.8039 98.3923C90.8039 98.3923 90.1696 102.225 86.9431 102.791C83.7166 103.357 72.9451 103.245 72.9451 103.245C72.9451 103.245 66.7857 102.359 64.5593 97.1686C62.3328 91.9783 60.8999 89.9106 62.8179 89.8212C64.7359 89.7319 75.0223 93.2963 75.6119 93.336C76.2015 93.3758 91.3736 85.4451 90.8039 98.3923Z" fill="#65617D"/>
<path opacity="0.05" d="M90.8039 98.3923C90.8039 98.3923 90.1696 102.225 86.9431 102.791C83.7166 103.357 72.9451 103.245 72.9451 103.245C72.9451 103.245 66.7857 102.359 64.5593 97.1686C62.3328 91.9783 60.8999 89.9106 62.8179 89.8212C64.7359 89.7319 75.0223 93.2963 75.6119 93.336C76.2015 93.3758 91.3736 85.4451 90.8039 98.3923Z" fill="black"/>
<path d="M61.9198 102.659C62.0198 102.905 62.1846 103.119 62.3966 103.278C62.6086 103.438 62.8599 103.537 63.1239 103.565C63.2545 103.573 63.3856 103.566 63.5144 103.543C64.696 103.339 67.4673 102.863 68.4449 103.047C69.032 103.153 70.1191 102.992 70.8928 102.848C71.4077 102.751 71.7858 102.659 71.7858 102.659C71.7858 102.659 70.8754 99.6434 70.7634 99.554C70.6515 99.4647 66.6712 97.0718 66.6712 97.0718L63.5219 96.8459C63.0979 96.9092 62.7147 97.1333 62.4522 97.4715C62.1213 97.8736 61.8352 98.5314 61.8153 99.6111C61.7631 102.27 61.9198 102.659 61.9198 102.659Z" fill="#3F3D56"/>
<path opacity="0.05" d="M61.92 102.659C62.02 102.905 62.1847 103.119 62.3967 103.278C62.6087 103.438 62.86 103.537 63.124 103.565C62.8156 103.168 62.5299 102.754 62.2683 102.324L62.2857 100.125C62.2231 99.5217 62.303 98.9123 62.519 98.3455C62.735 97.7786 63.0811 97.2702 63.5295 96.8608C63.5295 96.8608 61.8703 96.9725 61.823 99.626C61.7757 102.279 61.92 102.659 61.92 102.659Z" fill="black"/>
<path opacity="0.1" d="M75.5798 97.8487L78.5128 95.5577L83.1249 91.0227L81.8811 90.9656C81.6945 91.0847 81.1721 91.462 81.1522 91.9138C81.1298 92.4673 79.9083 91.9535 79.269 92.2687C78.6297 92.584 75.5201 96.563 74.9753 96.5356C74.4305 96.5083 73.9977 96.2601 73.7688 96.6474L73.7539 96.6722L75.5798 97.8487Z" fill="black"/>
<path opacity="0.1" d="M62.4443 97.4764C62.5488 97.526 62.6558 97.5757 62.7628 97.6204C64.9892 98.5735 67.738 100.569 67.9445 100.932C68.0689 101.153 69.6635 102.118 70.8924 102.843C71.4073 102.746 71.7854 102.654 71.7854 102.654C71.7854 102.654 70.875 99.6384 70.763 99.549C70.6511 99.4597 66.6708 97.0668 66.6708 97.0668L63.5215 96.8409C63.0933 96.9049 62.7069 97.1328 62.4443 97.4764Z" fill="black"/>
<path d="M56.2654 90.978C56.559 91.7028 59.0367 94.4928 59.0367 94.4928C59.0367 94.4928 60.6039 96.5332 62.8328 97.4715C65.0618 98.4097 67.8081 100.42 68.0121 100.783C68.144 101.016 69.9201 102.083 71.1689 102.816L71.45 102.979L72.0695 103.339L72.3978 103.526C72.3978 103.526 73.1591 102.917 73.9178 102.304C74.6765 101.691 75.4104 101.091 75.4104 101.063C75.4104 101.036 75.7288 100.224 75.6591 100.18C75.5895 100.135 75.4676 99.842 75.179 99.4771C74.8745 99.0725 74.478 98.7458 74.0223 98.5239C73.3629 98.1858 72.8371 97.6357 72.5297 96.9626C72.5297 96.9626 72.4302 96.8906 72.2809 96.7938C71.9715 96.5816 71.6259 96.4277 71.261 96.3396C70.7634 96.2775 69.8281 95.2573 69.8281 95.2573C69.4643 95.0211 69.1611 94.7031 68.9425 94.329C68.6937 93.8325 65.1787 91.4149 64.8528 91.1915L73.3954 96.6672L75.4402 97.9778L78.3732 95.6892L82.9852 91.1542L81.4628 91.0847C79.2239 90.9879 75.2437 90.8365 74.7462 90.9507C74.3386 91.0443 73.9187 91.072 73.5023 91.0326C73.5023 91.0326 72.368 91.0822 71.6167 90.6876C70.8654 90.2929 69.6838 90.1067 69.547 89.8138C69.4102 89.5209 65.3901 88.116 65.3901 88.116C65.3901 88.116 59.9173 85.2143 57.9595 86.937C56.0018 88.6596 55.9694 90.2482 56.2654 90.978Z" fill="#65617D"/>
<path d="M73.9199 74.3348L74.6239 76.6706L75.5344 81.9304L78.8753 82.1563L79.8306 80.5677L80.7958 78.9691C80.7958 78.9691 81.3978 76.8443 81.8307 74.7891C82.2113 72.9696 82.4625 71.2023 82.0471 71.0111C81.6764 70.8424 81.4351 70.2293 81.2759 69.569C81.256 69.4896 81.2386 69.4052 81.2237 69.3208C81.1123 68.7628 81.0375 68.1981 80.9998 67.6304C80.9998 67.6304 74.002 67.268 74.9797 70.1473C75.1541 70.6392 75.2432 71.1571 75.2434 71.6789C75.2434 71.8129 75.2434 71.9445 75.2185 72.0686C75.17 72.5151 75.0296 72.9469 74.8061 73.3369C74.5827 73.7268 74.281 74.0666 73.9199 74.3348Z" fill="#EE8E9E"/>
<path d="M72.4678 73.95L72.7165 77.9216L73.2837 81.2999L73.9206 82.8661L74.4902 91.4248C74.4902 91.4248 79.963 92.0578 81.3014 91.4124C81.4001 91.3747 81.4862 91.3102 81.5502 91.2262C83.1597 88.8011 82.6323 81.7765 82.6323 81.7765L83.2442 77.2415L82.8363 74.8883L81.8412 74.7841L81.08 74.7021C81.08 74.7021 80.9083 74.9131 80.6596 75.2408C79.9854 76.1269 78.7466 77.8744 78.8312 78.6017C78.9431 79.5946 78.6943 80.6197 78.3063 80.7786C77.9182 80.9375 77.6023 81.2105 77.5351 80.9375C77.4384 80.7086 77.4141 80.4557 77.4654 80.2127C77.5351 79.8254 77.1694 78.6464 77.1694 78.6464C77.1694 78.6464 76.5575 77.2638 76.6022 76.6755C76.647 76.0872 76.5351 75.4046 76.3535 75.2458C76.1719 75.0869 75.9206 74.928 76.1246 74.2032C76.3286 73.4784 75.2291 72.066 75.2291 72.066L72.4678 73.95Z" fill="#E3E8F4"/>
<path opacity="0.1" d="M79.7043 83.8591L79.9332 90.638L81.2442 91.3653C81.3426 91.3259 81.4285 91.2607 81.493 91.1766C83.1025 88.7515 82.5751 81.7268 82.5751 81.7268L83.1895 77.1918L82.7791 74.8387L81.784 74.7345C82.1671 72.915 82.4159 71.1501 82.0004 70.9565C81.6298 70.7877 81.3885 70.1746 81.2318 69.5168L80.5228 74.3125C80.5228 74.3125 80.5825 74.7444 80.6024 75.1912C80.6318 75.4737 80.6125 75.7591 80.5452 76.0351C80.4532 76.4063 80.438 76.7923 80.5004 77.1695C80.0899 77.8893 79.8859 79.2248 79.7864 80.513C79.6521 82.2258 79.7043 83.8591 79.7043 83.8591Z" fill="black"/>
<path d="M81.2517 69.3977C81.2517 69.3977 82.3985 69.5392 82.7617 70.0158C83.1249 70.4924 84.0801 70.5619 84.0801 70.5619C84.0801 70.5619 85.1697 70.9243 85.1473 71.0136C85.125 71.103 85.4658 71.242 86.1424 71.4232C86.819 71.6044 87.9609 72.2622 87.9609 72.4161C87.9609 72.57 89.7545 74.3423 89.7545 74.5235C89.7545 74.7047 90.2993 75.3848 90.2321 76.5862C90.1649 77.7876 90.0953 79.3166 90.3689 79.5648C90.6426 79.8131 90.3689 80.7886 90.3689 80.7886C90.2954 80.8948 90.2542 81.0199 90.2502 81.1489C90.2462 81.2779 90.2797 81.4054 90.3465 81.5159C90.5729 81.9229 90.2993 83.6233 90.2993 83.6233L90.3241 85.3931C90.3241 85.3931 90.0754 86.5026 90.3689 86.5498C90.6625 86.5969 90.3241 87.0934 90.3241 87.0934C90.3241 87.0934 90.0754 87.9994 90.3913 88.409C90.7072 88.8185 90.7993 90.561 90.7993 90.561L95.6626 97.613C95.6626 97.613 95.7323 98.9062 94.1875 98.8839C92.6426 98.8615 92.6625 99.1793 92.7098 99.4722C92.7571 99.7651 92.2769 100.085 92.2769 100.085C92.2769 100.085 91.665 100.403 92.0282 100.788C92.3914 101.172 93.4362 102.059 91.7098 102.647C91.5063 102.367 91.3392 102.063 91.2122 101.741C91.0659 101.341 90.9446 100.932 90.849 100.517C90.849 100.517 90.6898 98.792 90.3714 98.5662C90.053 98.3403 90.0978 97.2506 90.0978 97.2506C90.0978 97.2506 90.553 96.3669 89.9162 96.0095C89.2793 95.652 80.0551 90.5486 80.0551 90.5486L79.8312 83.7672C79.8312 83.7672 79.672 78.7556 80.6273 77.0777C80.5649 76.7004 80.5802 76.3145 80.6721 75.9433C80.8313 75.5362 80.6497 74.2206 80.6497 74.2206L81.2517 69.3977Z" fill="#3F3D56"/>
<path opacity="0.1" d="M75.2965 72.1281C75.2965 72.1281 73.0128 71.659 72.3984 71.9767C71.7839 72.2944 70.5824 72.5427 70.4083 72.7214C70.2341 72.9001 69.7739 72.7685 69.3634 73.8334C68.953 74.8983 68.9107 75.988 68.3858 76.4869C67.8609 76.9858 67.5922 77.3259 67.5698 77.6883C67.5475 78.0507 67.637 78.1425 67.433 78.2542C67.229 78.3659 66.9355 78.845 67.0226 79.0262C67.1096 79.2074 71.7491 83.1988 71.7491 83.1988C71.7491 83.1988 71.978 84.7179 72.1819 85.1027C72.3859 85.4874 71.9556 90.7944 71.5003 91.1568C71.0451 91.5192 74.5576 91.4894 74.5576 91.4894C74.5576 91.4894 74.7169 88.0143 74.8537 87.8256C74.9905 87.637 74.7616 83.9261 74.7616 83.9261C74.7616 83.9261 74.7392 80.7513 75.0353 79.9124C75.3313 79.0734 75.284 76.2834 75.284 76.2834C75.284 76.2834 75.5452 74.6103 75.8637 74.2206C76.1821 73.8309 75.2965 72.1281 75.2965 72.1281Z" fill="black"/>
<path d="M75.229 72.0611C75.229 72.0611 72.9454 71.5919 72.3309 71.9072C71.7165 72.2224 70.5125 72.4756 70.3408 72.6518C70.1692 72.8281 69.704 72.6965 69.296 73.7639C68.888 74.8312 68.8408 75.9159 68.3184 76.4149C67.796 76.9138 67.5223 77.2539 67.4999 77.6163C67.4775 77.9787 67.5696 78.0705 67.3631 78.1847C67.1566 78.2989 66.8656 78.773 66.9551 78.9542C67.0447 79.1354 71.6817 83.1268 71.6817 83.1268C71.6817 83.1268 71.908 84.6459 72.1145 85.0306C72.321 85.4154 71.8856 90.7223 71.4304 91.0847C70.9752 91.4471 74.5002 91.4149 74.5002 91.4149C74.5002 91.4149 74.6594 87.9398 74.7937 87.7536C74.928 87.5675 74.7041 83.8516 74.7041 83.8516C74.7041 83.8516 74.6817 80.6793 74.9778 79.8403C75.2738 79.0013 75.239 76.2113 75.239 76.2113C75.239 76.2113 75.5002 74.5383 75.8186 74.1486C76.137 73.7589 75.229 72.0611 75.229 72.0611Z" fill="#3F3D56"/>
<path opacity="0.1" d="M74.9903 70.1423C75.1647 70.6342 75.2539 71.1521 75.254 71.6739C76.3702 72.0001 77.5636 71.9453 78.6451 71.5181C79.7266 71.091 80.6343 70.3159 81.2243 69.3158C81.1129 68.7578 81.0381 68.1931 81.0004 67.6254C81.0004 67.6254 74.0126 67.2605 74.9903 70.1423Z" fill="black"/>
<path d="M71.5352 66.558C71.5343 67.8888 72.0452 69.1693 72.9627 70.1352C73.8801 71.1011 75.1341 71.6789 76.4659 71.7495C77.7978 71.82 79.1059 71.3778 80.1207 70.5142C81.1354 69.6505 81.7793 68.4313 81.9196 67.1078C82.0598 65.7844 81.6857 64.4577 80.8745 63.4014C80.0632 62.3451 78.8766 61.6397 77.5595 61.4307C76.2423 61.2217 74.895 61.525 73.7954 62.2781C72.6957 63.0312 71.9277 64.1767 71.6496 65.4783C71.5733 65.8331 71.535 66.1951 71.5352 66.558Z" fill="#EE8E9E"/>
<path d="M68.1936 78.5818L66.9498 78.9665C66.9816 79.0917 66.9749 79.2235 66.9305 79.3449C66.8861 79.4662 66.8062 79.5713 66.7011 79.6467C66.5928 79.722 66.5066 79.8247 66.4511 79.9442C66.3956 80.0636 66.3728 80.1957 66.3851 80.3268C66.3851 80.3268 66.2483 80.8232 65.9299 80.9399C65.6115 81.0566 65.4075 81.8012 65.4075 81.8012L64.3627 83.0026C64.3627 83.0026 63.9746 83.3203 64.0442 83.4792C64.1139 83.6381 63.6338 83.6827 63.6338 83.6827L63.8826 87.7188L66.0418 88.1284L67.3827 87.9919L68.4723 87.5848L69.4275 87.0164L69.8579 85.9068L71.7684 83.0026L68.1936 78.5818Z" fill="#3F3D56"/>
<path d="M63.9444 83.9931C63.9444 83.9931 61.1731 80.0042 59.1034 82.1563C57.0337 84.3084 59.9442 87.8033 60.6259 87.6891C61.3075 87.575 64.5588 87.3938 64.5588 87.3938L63.9444 83.9931Z" fill="#EE8E9E"/>
<path d="M70.4737 82.2683L58.2318 76.0336C58.0434 75.9377 57.8126 76.0123 57.7165 76.2003L52.9429 85.5325C52.8467 85.7205 52.9215 85.9507 53.1099 86.0467L65.3518 92.2814C65.5402 92.3773 65.771 92.3027 65.8672 92.1147L70.6408 82.7826C70.7369 82.5945 70.6622 82.3643 70.4737 82.2683Z" fill="#3F3D56"/>
<path d="M69.3354 82.8226L58.4717 77.2898L54.2929 85.459L65.1566 90.9918L69.3354 82.8226Z" fill="#EB5757"/>
<path d="M55.9646 81.3569C56.0745 81.3569 56.1636 81.268 56.1636 81.1583C56.1636 81.0486 56.0745 80.9597 55.9646 80.9597C55.8547 80.9597 55.7656 81.0486 55.7656 81.1583C55.7656 81.268 55.8547 81.3569 55.9646 81.3569Z" fill="#E6E8EC"/>
<path d="M67.7234 87.5004C67.9062 87.5004 68.0543 87.3525 68.0543 87.1702C68.0543 86.9879 67.9062 86.8401 67.7234 86.8401C67.5407 86.8401 67.3926 86.9879 67.3926 87.1702C67.3926 87.3525 67.5407 87.5004 67.7234 87.5004Z" fill="#E6E8EC"/>
<path d="M62.1514 84.832C62.1266 87.8255 68.3308 88.461 68.3308 88.461L69.9154 88.7092L70.6269 88.8209L70.9229 85.8969C70.9229 85.8969 70.597 85.8472 70.1915 85.7529C69.5895 85.6139 68.8109 85.3731 68.6492 85.033C68.388 84.4696 62.1689 81.8384 62.1514 84.832Z" fill="#EE8E9E"/>
<path opacity="0.1" d="M71.6494 65.4782C71.7921 65.4887 71.9266 65.5484 72.03 65.647C72.2042 65.8332 72.2141 66.1633 72.443 66.2775C72.5285 66.3135 72.6228 66.3239 72.7141 66.3073C73.3186 66.2229 73.6669 65.5427 74.249 65.3541C74.5874 65.2673 74.9453 65.298 75.264 65.441C75.3934 65.4828 75.5099 65.5572 75.6023 65.6569C75.7963 65.9051 75.6595 66.2775 75.7491 66.5803C75.8734 67.0023 76.3784 67.1686 76.8138 67.2232C77.2491 67.2778 77.7417 67.3101 78.0327 67.6377C78.1291 67.7606 78.1982 67.9024 78.2355 68.0539C78.2728 68.2054 78.2775 68.363 78.2492 68.5164C78.223 68.6233 78.223 68.7348 78.2492 68.8416C78.3686 69.1817 78.9581 69.1295 79.1124 68.8615C79.2268 68.6654 79.192 68.504 79.4581 68.4494C79.6483 68.4343 79.8392 68.4676 80.0129 68.5462C80.476 68.7048 80.9638 68.7796 81.4532 68.7671C81.7646 68.1046 81.9321 67.3838 81.9447 66.6521C81.9573 65.9205 81.8149 65.1944 81.5266 64.5215C81.2383 63.8486 80.8108 63.2441 80.272 62.7477C79.7332 62.2512 79.0953 61.874 78.4002 61.6407C77.705 61.4075 76.9683 61.3235 76.2384 61.3942C75.5084 61.4649 74.8017 61.6888 74.1645 62.0511C73.5273 62.4134 72.9741 62.9061 72.5411 63.4967C72.1081 64.0873 71.8051 64.7626 71.6519 65.4782H71.6494Z" fill="black"/>
<path d="M78.2462 68.7051C78.2202 68.5983 78.2202 68.4868 78.2462 68.38C78.2747 68.227 78.2701 68.0697 78.2327 67.9186C78.1954 67.7675 78.1262 67.6261 78.0298 67.5037C77.7388 67.1736 77.2487 67.1438 76.8109 67.0867C76.373 67.0296 75.8705 66.8658 75.7462 66.4438C75.6566 66.141 75.7934 65.7712 75.5994 65.5229C75.5085 65.4215 75.3915 65.3468 75.2611 65.307C74.9427 65.1633 74.5848 65.1318 74.2461 65.2176C73.664 65.4063 73.3157 66.0864 72.7112 66.1708C72.6199 66.1886 72.5253 66.1782 72.4401 66.141C72.2112 66.0268 72.1913 65.6967 72.0271 65.5105C71.751 65.2201 71.2261 65.4088 70.8903 65.1928C70.6866 65.0232 70.555 64.7828 70.5221 64.5201C70.3717 64.0333 70.3376 63.5182 70.4226 63.0159C70.6191 62.1744 71.3754 61.5961 71.8555 60.8738C72.3057 60.2036 72.5595 59.3546 73.2336 58.9103C73.9078 58.466 74.776 58.5653 75.5397 58.7912C75.8908 58.9162 76.252 59.0109 76.6193 59.0741C77.2338 59.1486 77.8507 58.9823 78.4676 58.9624C79.3421 58.9343 80.2012 59.1961 80.9105 59.7071C81.0705 59.8112 81.2062 59.9483 81.3085 60.1092C81.4111 60.3374 81.4718 60.582 81.4877 60.8316C81.5603 61.3002 81.7234 61.7503 81.9678 62.1571C82.1568 62.4773 82.3981 62.7652 82.5698 63.0953C82.7617 63.419 82.8205 63.8042 82.734 64.1701C82.6743 64.3563 82.5598 64.5251 82.5151 64.7162C82.4156 65.1581 82.7066 65.5825 82.9056 65.9896C83.0993 66.3622 83.1911 66.7791 83.1718 67.1984C83.1612 67.4074 83.1073 67.6119 83.0135 67.799C82.9198 67.9861 82.7882 68.1518 82.627 68.2856C82.2891 68.5195 81.8864 68.6419 81.4752 68.6356C80.9766 68.6508 80.4794 68.5759 80.0075 68.4147C79.8334 68.3373 79.6428 68.3041 79.4528 68.3179C79.1866 68.3725 79.2214 68.5339 79.107 68.73C78.9552 68.9931 78.3681 69.0452 78.2462 68.7051Z" fill="#3F3D56"/>
<path opacity="0.1" d="M75.4423 97.9828L78.3752 95.6942L82.9873 91.1592L81.4649 91.0897C81.2862 91.251 81.1721 91.4715 81.144 91.7103C81.1216 92.2638 79.9002 91.7475 79.2608 92.0652C78.6215 92.383 75.512 96.3595 74.9672 96.3321C74.4224 96.3048 73.9895 96.0566 73.7607 96.4414L73.7457 96.4662C73.655 96.5706 73.5328 96.6428 73.3975 96.6722L75.4423 97.9828Z" fill="black"/>
<path d="M69.5352 97.8239L71.0078 102.518L71.2392 103.262L71.9407 103.071L73.488 102.647L80.3738 100.76C81.2412 100.723 82.09 100.497 82.8615 100.1C84.1633 99.3722 85.653 99.0482 87.1402 99.1692C88.0507 99.2536 89.0632 98.8614 89.904 97.3125C89.904 97.3125 91.812 91.6903 86.9959 90.0794C82.1799 88.4684 81.9485 90.9357 81.9485 90.9357L81.8813 90.9754C81.6948 91.0946 81.1724 91.4719 81.1525 91.9237C81.1301 92.4772 79.9086 91.9634 79.2693 92.2786C78.63 92.5938 75.5204 96.5728 74.9756 96.5455C74.4309 96.5182 73.998 96.27 73.7691 96.6572L73.7542 96.6821C73.5851 96.9129 73.0801 96.9675 72.7442 96.975C72.6398 96.9804 72.5352 96.9804 72.4308 96.975L72.386 96.9874L72.0377 97.0916L69.5352 97.8239Z" fill="#65617D"/>
<path opacity="0.1" d="M69.915 88.7118L70.6265 88.8235L70.9225 85.8995C70.9225 85.8995 70.5966 85.8498 70.1912 85.7555C70.2981 86.1651 70.0543 87.7413 69.915 88.7118Z" fill="black"/>
<path opacity="0.1" d="M88.4978 75.0446C88.4978 75.0446 90.6098 74.4315 90.0874 80.4186C89.7247 84.0728 88.1679 87.5066 85.6569 90.1911C85.6569 90.1911 81.1568 92.1619 79.1343 91.8442C77.1118 91.5265 75.6367 91.4595 75.6367 91.4595C74.9994 91.1384 74.3022 90.9533 73.5893 90.9159C72.455 90.8712 70.0693 90.1712 70.022 89.9404C69.9748 89.7095 70.6141 86.3809 70.3405 86.1327C70.3405 86.1327 73.5222 86.2617 73.8406 86.4901C74.159 86.7185 74.6142 86.5571 74.955 86.4901C75.2958 86.4231 76.3407 85.5195 78.4079 86.3139C78.4079 86.3139 79.1119 86.3809 79.3855 86.1997C79.6086 86.096 79.8627 86.08 80.097 86.155C80.2739 86.0964 80.4414 86.0128 80.5945 85.9068C80.6617 85.8174 81.209 85.9068 81.209 85.9068C81.2416 85.9213 81.2769 85.9287 81.3126 85.9284C81.3482 85.9281 81.3834 85.9201 81.4158 85.905C81.4481 85.89 81.4768 85.8681 81.4999 85.841C81.523 85.8139 81.5401 85.7822 81.5498 85.7479C81.6217 85.5629 81.73 85.3941 81.8682 85.2515C81.8682 85.2515 82.4802 81.8062 83.6394 80.5129C83.732 80.4322 83.8031 80.3299 83.8465 80.2152C83.8899 80.1004 83.9042 79.9767 83.8882 79.8551C83.7937 79.4878 85.7713 74.3173 88.4978 75.0446Z" fill="black"/>
<path d="M88.4404 74.5829C88.4404 74.5829 90.5549 73.9723 90.0325 79.9569C89.6707 83.6114 88.1138 87.0455 85.602 89.7294C85.602 89.7294 81.1018 91.7027 79.0794 91.385C77.0569 91.0673 75.5792 90.9928 75.5792 90.9928C74.943 90.6716 74.2465 90.4864 73.5344 90.4492C72.3975 90.4021 70.0119 89.7046 69.9671 89.4737C69.9223 89.2429 70.5567 85.9142 70.2855 85.6635C70.2855 85.6635 73.4672 85.7951 73.7857 86.0234C74.1041 86.2518 74.5568 86.088 74.8976 86.0234C75.2384 85.9589 76.2832 85.0529 78.353 85.8447C78.353 85.8447 79.057 85.9142 79.3281 85.733C79.5513 85.6301 79.8047 85.6133 80.0396 85.6859C80.2159 85.6259 80.3832 85.5424 80.5371 85.4376C80.6043 85.3458 81.1491 85.4376 81.1491 85.4376C81.1816 85.4522 81.217 85.4595 81.2527 85.4592C81.2883 85.4589 81.3235 85.451 81.3559 85.4359C81.3882 85.4208 81.4169 85.399 81.44 85.3719C81.4631 85.3448 81.4801 85.313 81.4899 85.2788C81.5618 85.0938 81.6701 84.925 81.8083 84.7823C81.8083 84.7823 82.4227 81.337 83.582 80.0438C83.6745 79.9631 83.7457 79.8608 83.7891 79.746C83.8325 79.6313 83.8468 79.5076 83.8308 79.386C83.7387 79.0286 85.7139 73.8656 88.4404 74.5829Z" fill="#3F3D56"/>
<path opacity="0.1" d="M72.0303 97.0792L75.0304 100.703L75.0503 100.683C75.0727 100.614 75.3687 99.8444 75.299 99.7973C75.2294 99.7501 74.7095 98.6182 73.6647 98.1416C73.1332 97.8831 72.687 97.4783 72.3785 96.975L72.0303 97.0792Z" fill="black"/>
<path opacity="0.1" d="M72.0697 103.352L72.3981 103.538C72.3981 103.538 73.1593 102.93 73.918 102.317C74.6768 101.704 75.4106 101.103 75.4106 101.076C75.4106 101.048 75.729 100.237 75.6594 100.192C75.5897 100.147 75.4678 99.8544 75.1793 99.4895C73.1444 98.9211 74.433 100.331 74.6121 100.395C74.6121 100.395 72.1369 99.8271 72 102.52C71.9882 102.799 72.0116 103.079 72.0697 103.352Z" fill="black"/>
<path d="M74.5799 104.491L75.0127 104.739L79.3984 104.851C79.8902 105.149 80.4101 105.399 80.9507 105.596C81.0224 105.617 81.0956 105.633 81.1696 105.643C81.5767 105.676 81.9855 105.684 82.3936 105.665C82.7294 105.665 82.9881 105.643 82.9881 105.643C82.9881 105.643 82.7816 100.125 82.6249 99.5441C82.5503 99.2661 82.1821 99.3257 81.8189 99.4647C81.5466 99.5759 81.2838 99.7087 81.0328 99.8619C81.0328 99.8619 79.1721 100.043 78.876 100.202C78.58 100.361 77.7392 100.11 77.2168 100.202C76.6944 100.294 75.7615 99.5888 75.7615 99.5888C73.2166 98.7498 74.6495 100.314 74.8311 100.383C74.8311 100.383 72.3435 99.8147 72.2166 102.508C72.0897 105.201 74.5799 104.491 74.5799 104.491Z" fill="#3F3D56"/>
<path d="M80.9202 102.361C80.9675 103.503 81.8605 104.921 82.3929 105.67C82.7287 105.67 82.9874 105.648 82.9874 105.648C82.9874 105.648 82.781 100.13 82.6242 99.5491C82.5496 99.2711 82.1814 99.3307 81.8182 99.4697C81.3779 100.294 80.8804 101.438 80.9202 102.361Z" fill="#565387"/>
<path opacity="0.1" d="M80.9202 102.361C80.9675 103.503 81.8605 104.921 82.3929 105.67C82.7287 105.67 82.9874 105.648 82.9874 105.648C82.9874 105.648 82.781 100.13 82.6242 99.5491C82.5496 99.2711 82.1814 99.3307 81.8182 99.4697C81.3779 100.294 80.8804 101.438 80.9202 102.361Z" fill="black"/>
<path opacity="0.05" d="M80.1696 102.513C80.4731 103.615 80.4681 104.851 80.9507 105.601C81.0224 105.622 81.0956 105.638 81.1696 105.648C81.5767 105.681 81.9855 105.689 82.3936 105.67C82.7294 105.67 82.9881 105.648 82.9881 105.648C82.9881 105.648 82.7816 100.13 82.6249 99.5491C82.5503 99.2711 82.1821 99.3307 81.8189 99.4697C81.5467 99.5808 81.2838 99.7136 81.0328 99.8668C81.0328 99.8668 79.784 101.1 80.1696 102.513Z" fill="black"/>
<path opacity="0.1" d="M65.0391 91.3256C65.0391 91.3256 67.2182 92.0305 69.0641 94.5375L65.0391 91.3256Z" fill="black"/>
<g opacity="0.1">
<path opacity="0.1" d="M82.7419 64.1156C82.7419 64.133 82.7419 64.1479 82.7295 64.1652C82.7085 64.23 82.6827 64.293 82.6523 64.3539C82.6763 64.2724 82.7063 64.1927 82.7419 64.1156Z" fill="black"/>
<path opacity="0.1" d="M70.4175 63.0159C70.4544 62.8572 70.5112 62.7037 70.5866 62.5592C70.5866 62.5964 70.5617 62.6362 70.5518 62.6759C70.4689 63.1784 70.5038 63.6933 70.6538 64.1801C70.6868 64.4422 70.8173 64.6823 71.0195 64.8528C71.3578 65.0687 71.8827 64.8801 72.1588 65.1705C72.3329 65.3567 72.3429 65.6868 72.5718 65.801C72.657 65.8382 72.7516 65.8486 72.8429 65.8308C73.4474 65.7464 73.7957 65.0662 74.3778 64.8776C74.7164 64.7906 75.0747 64.8221 75.3928 64.9669C75.5232 65.0067 75.6402 65.0814 75.7311 65.1829C75.9251 65.4311 75.7883 65.801 75.8778 66.1038C76.0022 66.5258 76.5072 66.6921 76.9426 66.7467C77.3779 66.8013 77.8704 66.8336 78.1615 67.1637C78.2579 67.286 78.3271 67.4274 78.3644 67.5785C78.4017 67.7296 78.4063 67.8869 78.3779 68.0399C78.3519 68.1468 78.3519 68.2583 78.3779 68.3651C78.4973 68.7052 79.0869 68.653 79.2411 68.385C79.3556 68.1889 79.3207 68.0275 79.5869 67.9729C79.777 67.9591 79.9676 67.9923 80.1417 68.0697C80.6136 68.2309 81.1108 68.3058 81.6094 68.2906C82.0205 68.2969 82.4233 68.1745 82.7612 67.9406C82.9089 67.8249 83.0294 67.6783 83.1144 67.5112C83.0376 67.8152 82.8628 68.0856 82.6169 68.2807C82.279 68.5146 81.8762 68.637 81.4651 68.6307C80.9665 68.6458 80.4693 68.571 79.9974 68.4098C79.8233 68.3324 79.6327 68.2991 79.4426 68.313C79.1765 68.3676 79.2113 68.5289 79.0993 68.725C78.9426 68.9931 78.353 69.0452 78.2336 68.7052C78.2088 68.5982 78.2088 68.487 78.2336 68.38C78.2621 68.227 78.2575 68.0697 78.2201 67.9186C78.1828 67.7675 78.1136 67.6261 78.0172 67.5038C77.7262 67.1736 77.2361 67.1438 76.7983 67.0868C76.3604 67.0297 75.8579 66.8658 75.7336 66.4439C75.644 66.141 75.7808 65.7712 75.5868 65.523C75.4966 65.4219 75.3805 65.3472 75.251 65.307C74.9317 65.1634 74.573 65.1319 74.2335 65.2176C73.6539 65.4063 73.3031 66.0864 72.6986 66.1708C72.6073 66.1886 72.5127 66.1782 72.4275 66.141C72.1986 66.0268 72.1787 65.6967 72.0145 65.5105C71.7384 65.2201 71.216 65.4088 70.8777 65.1928C70.674 65.0232 70.5424 64.7828 70.5095 64.5201C70.3616 64.0328 70.33 63.5176 70.4175 63.0159Z" fill="black"/>
</g>
<path opacity="0.1" d="M83.0955 81.1659C82.6775 81.7268 82.2024 82.2456 81.8342 82.8364C81.4343 83.4188 81.24 84.1174 81.282 84.8222C81.6626 84.4325 81.8392 83.8913 82.078 83.4023C82.486 82.5733 83.093 81.8708 83.6079 81.1112C83.7049 80.9648 84.3318 80.1184 84.0159 80.0836C83.7522 80.0464 83.2373 80.9747 83.0955 81.1659Z" fill="black"/>
<path d="M85.3333 134.278C85.6343 135.241 85.9378 136.206 86.3134 137.142C86.9902 138.769 87.8418 140.318 88.8533 141.762C89.5054 142.712 90.2062 143.628 90.9529 144.507C91.8882 145.606 92.943 146.714 93.2614 148.118C93.453 148.93 93.3883 149.777 93.4679 150.601C93.5475 151.425 93.8186 152.308 94.4928 152.805C94.9729 153.16 95.5874 153.267 96.1769 153.358C96.5998 153.425 97.1272 153.448 97.3461 153.083C97.4227 152.934 97.4627 152.769 97.463 152.601L97.565 151.388C97.5849 151.124 97.6795 150.789 97.9432 150.777C98.2069 150.764 98.3387 151.114 98.5626 151.273C98.8611 151.482 99.3089 151.273 99.4731 150.958C99.6094 150.617 99.6182 150.238 99.4979 149.891C99.3168 149.2 98.991 148.555 98.5421 147.999C98.0932 147.443 97.5313 146.988 96.8934 146.664C96.4503 146.486 96.0255 146.265 95.6247 146.006C95.2176 145.653 94.8801 145.227 94.6296 144.75C92.3211 140.957 90.0001 137.145 88.3707 133.017C88.0496 132.279 87.8328 131.5 87.7264 130.703C87.6468 129.892 87.7737 129.075 87.8259 128.261C87.9223 126.798 87.7863 125.33 87.4229 123.909C87.3435 123.537 87.2031 123.179 87.0075 122.852C86.3358 121.837 84.7686 121.685 83.7735 122.385C83.4071 122.667 83.1033 123.021 82.8815 123.425C82.6597 123.83 82.5246 124.276 82.4849 124.736C82.4128 125.56 82.8879 126.414 83.1292 127.181C83.8606 129.549 84.5953 131.915 85.3333 134.278Z" fill="#A1616A"/>
<path opacity="0.05" d="M85.3333 134.278C85.6343 135.241 85.9378 136.206 86.3134 137.142C86.9902 138.769 87.8418 140.318 88.8533 141.762C89.5054 142.712 90.2062 143.628 90.9529 144.507C91.8882 145.606 92.943 146.714 93.2614 148.118C93.453 148.93 93.3883 149.777 93.4679 150.601C93.5475 151.425 93.8186 152.308 94.4928 152.805C94.9729 153.16 95.5874 153.267 96.1769 153.358C96.5998 153.425 97.1272 153.448 97.3461 153.083C97.4227 152.934 97.4627 152.769 97.463 152.601L97.565 151.388C97.5849 151.124 97.6795 150.789 97.9432 150.777C98.2069 150.764 98.3387 151.114 98.5626 151.273C98.8611 151.482 99.3089 151.273 99.4731 150.958C99.6094 150.617 99.6182 150.238 99.4979 149.891C99.3168 149.2 98.991 148.555 98.5421 147.999C98.0932 147.443 97.5313 146.988 96.8934 146.664C96.4503 146.486 96.0255 146.265 95.6247 146.006C95.2176 145.653 94.8801 145.227 94.6296 144.75C92.3211 140.957 90.0001 137.145 88.3707 133.017C88.0496 132.279 87.8328 131.5 87.7264 130.703C87.6468 129.892 87.7737 129.075 87.8259 128.261C87.9223 126.798 87.7863 125.33 87.4229 123.909C87.3435 123.537 87.2031 123.179 87.0075 122.852C86.3358 121.837 84.7686 121.685 83.7735 122.385C83.4071 122.667 83.1033 123.021 82.8815 123.425C82.6597 123.83 82.5246 124.276 82.4849 124.736C82.4128 125.56 82.8879 126.414 83.1292 127.181C83.8606 129.549 84.5953 131.915 85.3333 134.278Z" fill="black"/>
<path d="M70.8303 174.832C71.2804 174.988 71.7589 175.046 72.2333 175.001C72.2681 174.614 72.7905 174.527 73.1786 174.547C73.3663 174.54 73.5524 174.583 73.7184 174.671C73.8155 174.733 73.8901 174.822 73.9846 174.887C74.1532 174.979 74.3422 175.028 74.5344 175.028L76.5544 175.197C77.4549 175.274 78.3927 175.343 79.236 175.023C79.404 174.97 79.5534 174.87 79.6664 174.735C79.8953 174.408 79.6664 173.938 79.3505 173.7C79.0345 173.462 78.6266 173.355 78.3082 173.112C77.6066 172.578 77.5096 171.58 77.139 170.781C76.8755 170.277 76.5505 169.808 76.1713 169.384C75.8965 169.019 75.5763 168.692 75.2185 168.408C74.4075 167.825 73.4771 167.837 72.5244 167.753C71.8527 167.693 71.2208 167.654 70.7382 168.249C70.1412 168.994 70.38 170.483 70.4173 171.352C70.4639 172.521 70.602 173.685 70.8303 174.832Z" fill="#514E7F"/>
<path opacity="0.05" d="M70.8303 174.832C71.2804 174.988 71.7589 175.046 72.2333 175.001C72.2681 174.614 72.7905 174.527 73.1786 174.547C73.3663 174.54 73.5524 174.583 73.7184 174.671C73.8155 174.733 73.8901 174.822 73.9846 174.887C74.1532 174.979 74.3422 175.028 74.5344 175.028L76.5544 175.197C77.4549 175.274 78.3927 175.343 79.236 175.023C79.404 174.97 79.5534 174.87 79.6664 174.735C79.8953 174.408 79.6664 173.938 79.3505 173.7C79.0345 173.462 78.6266 173.355 78.3082 173.112C77.6066 172.578 77.5096 171.58 77.139 170.781C76.8755 170.277 76.5505 169.808 76.1713 169.384C75.8965 169.019 75.5763 168.692 75.2185 168.408C74.4075 167.825 73.4771 167.837 72.5244 167.753C71.8527 167.693 71.2208 167.654 70.7382 168.249C70.1412 168.994 70.38 170.483 70.4173 171.352C70.4639 172.521 70.602 173.685 70.8303 174.832Z" fill="black"/>
<path d="M71.6461 135.625C71.0292 135.824 70.7605 136.591 70.8749 137.229C70.9894 137.867 71.3725 138.418 71.6884 138.984C72.5889 140.59 72.977 142.427 73.7332 144.102C74.2979 145.343 75.0616 146.51 75.6189 147.766C76.1761 149.022 76.5219 150.439 76.1836 151.772C76.0194 152.42 75.701 153.013 75.4895 153.651C75.2802 154.343 75.1435 155.054 75.0815 155.774C74.8076 158.218 74.7585 160.682 74.9348 163.136C74.9363 163.435 74.9989 163.731 75.1188 164.005C75.2457 164.253 75.4646 164.501 75.3676 164.749C75.3253 164.851 75.2333 164.925 75.1885 165.025C75.0591 165.303 75.3179 165.598 75.5542 165.797C75.512 165.871 75.4552 165.937 75.3873 165.989C75.3194 166.042 75.2416 166.08 75.1587 166.102C75.3282 166.21 75.4584 166.369 75.5301 166.556C75.6018 166.744 75.6111 166.949 75.5567 167.142C75.3477 167.174 75.3353 167.495 75.4671 167.663C75.599 167.832 75.8079 167.936 75.9025 168.128C75.9581 168.283 75.952 168.454 75.8854 168.606C75.8188 168.757 75.6968 168.877 75.5442 168.942C75.2335 169.061 74.8944 169.087 74.5691 169.016C74.0174 168.94 73.4727 168.82 72.9397 168.659C72.6611 168.604 72.4115 168.451 72.237 168.228C72.0624 168.004 71.9745 167.725 71.9894 167.442C71.8662 166.432 71.8288 165.413 71.8774 164.397C71.9645 159.472 71.8774 154.542 71.6635 149.62C71.5764 147.634 70.9794 145.711 70.2107 143.884C69.7858 142.95 69.3134 142.039 68.7953 141.153C67.6858 139.128 66.7056 136.884 66.9594 134.588C66.9867 134.34 67.0763 134.044 67.3226 134.005C67.4188 133.994 67.5161 134.011 67.6037 134.052C68.1147 134.29 68.6092 134.562 69.0838 134.866C69.8637 135.322 70.743 135.583 71.6461 135.625Z" fill="#464353"/>
<path opacity="0.05" d="M71.6461 135.625C71.0292 135.824 70.7605 136.591 70.8749 137.229C70.9894 137.867 71.3725 138.418 71.6884 138.984C72.5889 140.59 72.977 142.427 73.7332 144.102C74.2979 145.343 75.0616 146.51 75.6189 147.766C76.1761 149.022 76.5219 150.439 76.1836 151.772C76.0194 152.42 75.701 153.013 75.4895 153.651C75.2802 154.343 75.1435 155.054 75.0815 155.774C74.8076 158.218 74.7585 160.682 74.9348 163.136C74.9363 163.435 74.9989 163.731 75.1188 164.005C75.2457 164.253 75.4646 164.501 75.3676 164.749C75.3253 164.851 75.2333 164.925 75.1885 165.025C75.0591 165.303 75.3179 165.598 75.5542 165.797C75.512 165.871 75.4552 165.937 75.3873 165.989C75.3194 166.042 75.2416 166.08 75.1587 166.102C75.3282 166.21 75.4584 166.369 75.5301 166.556C75.6018 166.744 75.6111 166.949 75.5567 167.142C75.3477 167.174 75.3353 167.495 75.4671 167.663C75.599 167.832 75.8079 167.936 75.9025 168.128C75.9581 168.283 75.952 168.454 75.8854 168.606C75.8188 168.757 75.6968 168.877 75.5442 168.942C75.2335 169.061 74.8944 169.087 74.5691 169.016C74.0174 168.94 73.4727 168.82 72.9397 168.659C72.6611 168.604 72.4115 168.451 72.237 168.228C72.0624 168.004 71.9745 167.725 71.9894 167.442C71.8662 166.432 71.8288 165.413 71.8774 164.397C71.9645 159.472 71.8774 154.542 71.6635 149.62C71.5764 147.634 70.9794 145.711 70.2107 143.884C69.7858 142.95 69.3134 142.039 68.7953 141.153C67.6858 139.128 66.7056 136.884 66.9594 134.588C66.9867 134.34 67.0763 134.044 67.3226 134.005C67.4188 133.994 67.5161 134.011 67.6037 134.052C68.1147 134.29 68.6092 134.562 69.0838 134.866C69.8637 135.322 70.743 135.583 71.6461 135.625Z" fill="black"/>
<path d="M63.3058 129.638C62.9841 129.432 62.6131 129.316 62.2311 129.301C61.7883 129.323 61.4102 129.614 61.0644 129.892C60.6547 130.205 60.2658 130.545 59.9002 130.909C59.1431 131.715 58.6156 132.707 58.3724 133.784C58.1292 134.861 58.1791 135.984 58.5171 137.035C58.8828 138.13 59.5519 139.096 60.2136 140.041L61.557 141.967C63.6068 144.904 65.6566 147.84 67.8034 150.707C67.8039 150.778 67.8268 150.846 67.8688 150.903C67.9109 150.96 67.9699 151.002 68.0373 151.023C68.1144 151.042 68.2114 151.04 68.2587 151.105C68.2805 151.145 68.2901 151.191 68.2861 151.236C68.2813 151.448 68.2409 151.658 68.1666 151.857C68.1318 151.922 68.1229 151.998 68.1418 152.07C68.2114 152.231 68.505 152.14 68.5995 152.291C68.6617 152.39 68.5846 152.519 68.5025 152.604C68.4204 152.688 68.3184 152.783 68.3333 152.899C68.3482 153.016 68.5522 153.147 68.5448 153.291C68.5448 153.376 68.4701 153.44 68.4179 153.507C68.3448 153.614 68.3115 153.743 68.3237 153.872C68.336 154.001 68.3931 154.121 68.4851 154.212C68.6269 155.612 67.8632 156.943 67.7114 158.338C67.4626 160.542 68.4701 162.694 68.592 164.906C68.5847 165.154 68.6323 165.402 68.7313 165.63C68.9378 166.013 69.4776 166.244 69.4503 166.678C69.4112 166.856 69.3605 167.032 69.2985 167.204C69.2562 167.452 69.3756 167.701 69.3806 167.949C69.3856 168.197 69.1642 168.502 68.9304 168.403C69.1061 168.989 69.2629 169.58 69.4005 170.175L74.1022 170.563C74.1529 170.141 74.1386 169.714 74.0599 169.297C73.9629 168.842 73.7589 168.42 73.6519 167.971C73.5824 167.75 73.5628 167.516 73.5946 167.287C73.6264 167.057 73.7089 166.837 73.836 166.643C73.7134 166.645 73.5943 166.603 73.4996 166.525C73.405 166.448 73.3408 166.339 73.3186 166.219C73.2792 165.977 73.2834 165.73 73.331 165.489C73.4554 164.265 72.9404 163.059 72.9554 161.83C72.9703 160.862 73.3111 159.931 73.4827 158.981C73.8509 156.945 73.4678 154.738 74.3758 152.879C74.9256 151.76 75.6868 150.519 75.0699 149.434C74.7664 148.898 74.229 148.53 73.8783 148.024C73.5923 147.546 73.3778 147.028 73.2414 146.488C72.5175 144.254 71.3459 142.178 70.3185 140.054C70.0333 139.521 69.8216 138.953 69.6891 138.363C69.6165 137.846 69.5899 137.324 69.6095 136.802C69.6095 135.865 69.5522 134.929 69.4378 134C69.4146 133.592 69.298 133.196 69.097 132.84C68.894 132.572 68.6406 132.345 68.3507 132.173C66.8084 131.118 64.9725 130.515 63.3058 129.638Z" fill="#464353"/>
<path d="M68.9405 176.552C69.3919 176.706 69.871 176.763 70.346 176.718C70.3808 176.331 70.9007 176.244 71.2888 176.264C71.4765 176.258 71.6626 176.301 71.8286 176.388C71.9257 176.45 72.0003 176.542 72.0973 176.604C72.2654 176.698 72.4547 176.746 72.6471 176.746L74.6646 176.915C75.5676 176.992 76.5029 177.063 77.3487 176.741C77.5164 176.689 77.6652 176.588 77.7766 176.453C78.0055 176.125 77.7766 175.659 77.4607 175.42C77.1447 175.182 76.7368 175.073 76.4208 174.829C75.7168 174.296 75.6223 173.3 75.2491 172.501C74.9881 171.996 74.6638 171.525 74.2839 171.101C74.0083 170.738 73.6873 170.411 73.3287 170.128C72.5202 169.542 71.5873 169.555 70.6371 169.47C69.9629 169.411 69.331 169.374 68.8509 169.967C68.2539 170.712 68.4927 172.201 68.5275 173.072C68.5743 174.241 68.7123 175.405 68.9405 176.552Z" fill="#514E7F"/>
<path d="M89.779 121.514C92.3509 121.514 94.4359 119.434 94.4359 116.868C94.4359 114.301 92.3509 112.221 89.779 112.221C87.207 112.221 85.1221 114.301 85.1221 116.868C85.1221 119.434 87.207 121.514 89.779 121.514Z" fill="#A1616A"/>
<path d="M85.386 118.248C84.7193 118.821 83.7616 118.863 82.8859 118.953C81.0135 119.145 79.1909 119.671 77.5052 120.506C77.2718 120.607 77.0605 120.752 76.8832 120.933C76.7319 121.13 76.6242 121.357 76.5673 121.599C76.4071 122.121 76.3472 122.67 76.3907 123.215C76.4517 123.743 76.604 124.257 76.841 124.734C77.4873 126.069 78.4846 127.204 79.7266 128.018C79.9455 128.18 80.1939 128.299 80.458 128.368C81.07 128.494 81.662 128.142 82.2665 127.983C82.8164 127.84 83.3959 127.858 83.9357 128.035C84.4333 128.204 84.9781 128.512 85.4706 128.306C85.7858 128.13 86.0309 127.851 86.1647 127.516C86.6404 126.619 87.0648 125.696 87.4358 124.751C87.5691 124.382 87.7228 124.021 87.8961 123.669C88.4359 122.644 89.3687 121.852 89.8339 120.787C89.8812 120.706 89.9097 120.615 89.9174 120.521C89.9252 120.428 89.912 120.334 89.8787 120.246C89.7925 120.127 89.6731 120.036 89.5354 119.985C88.8476 119.592 88.2207 119.101 87.6747 118.528C87.3687 118.235 86.8065 117.443 86.3662 117.374C85.8711 117.289 85.7219 117.96 85.386 118.248Z" fill="#A1616A"/>
<path d="M85.4956 127.69C84.9557 127.938 84.3189 127.831 83.7343 127.71C82.2268 127.394 80.7019 127.077 79.3063 126.426C78.8703 126.26 78.4925 125.97 78.2192 125.592C78.0494 125.269 77.9462 124.916 77.9157 124.552L77.6669 122.815C77.5774 122.212 77.7316 121.653 77.7466 121.043C77.756 120.975 77.7519 120.906 77.7344 120.84C77.7169 120.774 77.6863 120.712 77.6446 120.658C77.5594 120.586 77.4494 120.552 77.3386 120.561C76.6396 120.573 76.2167 121.306 75.7266 121.802C75.4433 122.089 75.1049 122.315 74.7315 122.467C74.2838 122.651 73.7365 122.78 73.5499 123.227C73.4753 123.413 73.4852 123.624 73.4056 123.81C73.0922 124.555 71.7563 124.307 71.4155 125.051C71.3185 125.26 71.3259 125.52 71.1667 125.684C71.0075 125.848 70.709 125.846 70.4627 125.885C69.4901 126.044 69.0199 127.164 68.189 127.692C67.49 128.139 66.5895 128.129 65.8357 128.477C65.4178 128.67 65.0471 128.973 64.6043 129.1C64.1615 129.226 63.6615 129.159 63.1864 129.172C63.1357 129.167 63.0846 129.173 63.0362 129.188C62.9879 129.204 62.9433 129.23 62.9053 129.264C62.8757 129.309 62.8562 129.359 62.8481 129.412C62.8399 129.465 62.8433 129.52 62.858 129.571C63.0884 131.039 63.6979 132.422 64.6266 133.583C65.5553 134.744 66.771 135.644 68.1542 136.194C68.3148 136.245 68.4672 136.318 68.6069 136.412C69.0298 136.728 69.1045 137.405 69.5846 137.629C69.7579 137.689 69.9446 137.701 70.1242 137.663C70.3038 137.624 70.4692 137.537 70.602 137.41C70.8669 137.156 71.1161 136.886 71.3483 136.601C71.7867 136.144 72.3621 135.842 72.9877 135.74C73.5648 135.648 74.2091 135.715 74.6768 135.36C74.8681 135.185 75.046 134.996 75.2092 134.794C75.5557 134.471 75.9669 134.226 76.4157 134.074C77.6418 133.591 78.9378 133.307 80.2541 133.233C81.4805 133.166 82.7417 133.277 83.901 132.88C84.202 132.787 84.4794 132.63 84.7145 132.421C84.9637 132.152 85.1491 131.83 85.2568 131.48C85.675 130.261 85.7574 128.952 85.4956 127.69Z" fill="#EB5757"/>
<path d="M79.4933 120.842C79.8366 120.809 80.1823 120.842 80.5281 120.842C80.9336 120.842 81.3341 120.742 81.7396 120.74C82.3817 120.75 83.0037 120.965 83.5148 121.353C84.0258 121.741 84.3992 122.282 84.5805 122.897C84.6147 122.995 84.6207 123.101 84.5979 123.202C84.5845 123.252 84.5536 123.296 84.5106 123.325C84.4677 123.354 84.4157 123.367 84.3641 123.361C84.2295 122.994 84.0534 122.643 83.8392 122.316C83.4536 121.791 82.9041 121.408 82.2769 121.229C81.6517 121.052 80.9929 121.028 80.3565 121.159C80.0903 121.209 79.8316 121.278 79.5729 121.35L78.3291 121.693C78.1002 121.755 77.8688 121.817 77.6474 121.899C77.4758 121.963 77.1823 122.199 77.0131 122.209C76.7842 122.209 76.9683 122.011 77.0703 121.877C77.2734 121.6 77.5577 121.394 77.8838 121.286C78.4007 121.075 78.941 120.925 79.4933 120.842Z" fill="#EB5757"/>
<path d="M82.6317 134.799C82.9327 135.762 83.2337 136.728 83.6119 137.663C84.2877 139.291 85.1393 140.84 86.1517 142.283C86.8039 143.233 87.5047 144.15 88.2513 145.028C89.1842 146.128 90.2265 147.235 90.5599 148.637C90.7514 149.451 90.6867 150.298 90.7663 151.119C90.8459 151.941 91.1171 152.827 91.7888 153.324C92.2714 153.676 92.8858 153.783 93.4754 153.877C93.8958 153.944 94.4232 153.967 94.6446 153.602C94.7197 153.452 94.7597 153.287 94.7615 153.12L94.861 151.906C94.8834 151.643 94.9779 151.308 95.2391 151.296C95.5003 151.283 95.6371 151.633 95.861 151.792C96.1596 152.001 96.6073 151.792 96.7715 151.477C96.9067 151.135 96.9156 150.757 96.7964 150.41C96.6144 149.719 96.2883 149.075 95.8395 148.519C95.3906 147.962 94.8292 147.507 94.1918 147.183C93.7483 147.004 93.3226 146.784 92.9206 146.525C92.5128 146.171 92.1752 145.744 91.9256 145.266C89.6145 141.476 87.2936 137.663 85.6666 133.533C85.3458 132.796 85.1281 132.018 85.0199 131.222C84.9427 130.41 85.0671 129.594 85.1219 128.78C85.2183 127.317 85.0823 125.848 84.7189 124.428C84.6396 124.055 84.4983 123.698 84.3009 123.371C83.6318 122.353 82.062 122.204 81.067 122.904C80.7002 123.185 80.3961 123.539 80.1738 123.944C79.9516 124.349 79.816 124.795 79.7759 125.255C79.7038 126.079 80.1814 126.933 80.4202 127.7C81.1549 130.069 81.8921 132.436 82.6317 134.799Z" fill="#A1616A"/>
<path d="M96.5531 113.581C96.5904 113.194 96.2421 112.836 95.8466 112.588C95.43 112.375 95.03 112.131 94.65 111.858C94.2968 111.553 94.1027 111.156 93.7495 110.851C93.3479 110.546 92.8921 110.319 92.4061 110.183C91.3725 109.821 90.2873 109.628 89.1921 109.609C88.0851 109.609 86.9532 109.858 86.1199 110.421C85.9142 110.55 85.7366 110.719 85.5975 110.918C85.4661 111.156 85.3816 111.417 85.3487 111.687C85.1501 112.52 84.8813 113.335 84.5452 114.122C84.1994 114.998 83.8312 115.907 83.0178 116.585C82.1471 117.307 80.8162 117.724 80.2416 118.598C80.178 118.675 80.1335 118.767 80.1114 118.864C80.0894 118.962 80.0905 119.064 80.1147 119.161C80.1968 119.382 80.4605 119.533 80.7043 119.672C82.1172 120.482 83.3362 121.532 83.9631 122.785C84.59 124.039 84.5725 125.516 83.6795 126.67C83.3511 127.097 82.8984 127.603 83.2193 128.032C83.7168 128.685 85.381 128.31 85.7691 129.001C85.891 129.221 85.8189 129.472 85.8189 129.713C85.8189 130.438 86.5179 131.081 87.3662 131.416C88.2145 131.751 89.1971 131.83 90.1523 131.872C90.4059 131.304 90.4309 130.659 90.222 130.073C90.1584 129.946 90.1333 129.804 90.1499 129.663C90.2211 129.507 90.3316 129.372 90.4708 129.271C91.4907 128.308 91.2743 126.893 90.6623 125.749C90.0503 124.605 89.0951 123.56 88.7394 122.356C88.5627 121.757 88.5627 121.085 89.0379 120.588C89.3106 120.35 89.6045 120.136 89.916 119.95C90.4725 119.574 90.901 119.037 91.1449 118.411C91.431 117.62 91.3937 116.674 92.2246 116.14C93.0231 115.644 94.145 115.788 95.0281 115.448C95.7073 115.18 96.4983 114.149 96.5531 113.581Z" fill="#464353"/>
</g>
<defs>
<linearGradient id="paint0_linear" x1="76.0749" y1="105.509" x2="76.0749" y2="58.1235" gradientUnits="userSpaceOnUse">
<stop stop-color="#808080" stop-opacity="0.25"/>
<stop offset="0.54" stop-color="#808080" stop-opacity="0.12"/>
<stop offset="1" stop-color="#808080" stop-opacity="0.1"/>
</linearGradient>
<clipPath id="clip0">
<rect width="293" height="180" fill="white"/>
</clipPath>
</defs>
</svg>
