<svg width="506" height="412" viewBox="0 0 506 412" fill="none" xmlns="http://www.w3.org/2000/svg">
<g clip-path="url(#clip0)">
<path d="M405.408 412C456.096 412 497.187 402.748 497.187 391.335C497.187 379.921 456.096 370.669 405.408 370.669C354.72 370.669 313.629 379.921 313.629 391.335C313.629 402.748 354.72 412 405.408 412Z" fill="#EB5757"/>
<path d="M413.918 405.922C464.606 405.922 505.697 396.67 505.697 385.256C505.697 373.843 464.606 364.591 413.918 364.591C363.23 364.591 322.139 373.843 322.139 385.256C322.139 396.67 363.23 405.922 413.918 405.922Z" stroke="#3F3D56" stroke-miterlimit="10"/>
<path d="M265.308 203.218C275.379 203.218 283.543 195.054 283.543 184.983C283.543 174.913 275.379 166.749 265.308 166.749C255.238 166.749 247.074 174.913 247.074 184.983C247.074 195.054 255.238 203.218 265.308 203.218Z" fill="#EB5757"/>
<path d="M338.852 203.218C348.923 203.218 357.087 195.054 357.087 184.983C357.087 174.913 348.923 166.749 338.852 166.749C328.782 166.749 320.618 174.913 320.618 184.983C320.618 195.054 328.782 203.218 338.852 203.218Z" fill="#EB5757"/>
<path d="M412.397 203.218C422.468 203.218 430.632 195.054 430.632 184.983C430.632 174.913 422.468 166.749 412.397 166.749C402.327 166.749 394.163 174.913 394.163 184.983C394.163 195.054 402.327 203.218 412.397 203.218Z" fill="#EB5757"/>
<path d="M7.59784 14.1891C8.60489 14.1891 9.42126 13.3727 9.42126 12.3656C9.42126 11.3586 8.60489 10.5422 7.59784 10.5422C6.59079 10.5422 5.77441 11.3586 5.77441 12.3656C5.77441 13.3727 6.59079 14.1891 7.59784 14.1891Z" fill="#F86B75"/>
<path d="M13.0676 14.1891C14.0746 14.1891 14.891 13.3727 14.891 12.3656C14.891 11.3586 14.0746 10.5422 13.0676 10.5422C12.0605 10.5422 11.2441 11.3586 11.2441 12.3656C11.2441 13.3727 12.0605 14.1891 13.0676 14.1891Z" fill="#FAD375"/>
<path d="M18.5383 14.1891C19.5453 14.1891 20.3617 13.3727 20.3617 12.3656C20.3617 11.3586 19.5453 10.5422 18.5383 10.5422C17.5312 10.5422 16.7148 11.3586 16.7148 12.3656C16.7148 13.3727 17.5312 14.1891 18.5383 14.1891Z" fill="#8BCC55"/>
<path d="M165.931 40.6288H40.7227V79.5285H165.931V40.6288Z" fill="#EB5757"/>
<path d="M221.546 6.28754H0.303711V137.574H221.546V6.28754Z" fill="url(#paint0_linear)" stroke="#3F3D56" stroke-miterlimit="10"/>
<path d="M0.303711 16.2303H221.546" stroke="#3F3D56" stroke-miterlimit="10"/>
<path d="M8.20526 12.9735C9.21231 12.9735 10.0287 12.1571 10.0287 11.15C10.0287 10.143 9.21231 9.3266 8.20526 9.3266C7.19821 9.3266 6.38184 10.143 6.38184 11.15C6.38184 12.1571 7.19821 12.9735 8.20526 12.9735Z" stroke="#3F3D56" stroke-miterlimit="10"/>
<path d="M13.676 12.9735C14.683 12.9735 15.4994 12.1571 15.4994 11.15C15.4994 10.143 14.683 9.3266 13.676 9.3266C12.6689 9.3266 11.8525 10.143 11.8525 11.15C11.8525 12.1571 12.6689 12.9735 13.676 12.9735Z" stroke="#3F3D56" stroke-miterlimit="10"/>
<path d="M19.1457 12.9735C20.1527 12.9735 20.9691 12.1571 20.9691 11.15C20.9691 10.143 20.1527 9.3266 19.1457 9.3266C18.1386 9.3266 17.3223 10.143 17.3223 11.15C17.3223 12.1571 18.1386 12.9735 19.1457 12.9735Z" stroke="#3F3D56" stroke-miterlimit="10"/>
<path d="M173.529 33.0311H48.3203V71.9309H173.529V33.0311Z" stroke="#3F3D56" stroke-miterlimit="10"/>
<path d="M192.675 96.5472H24.9199V101.577H192.675V96.5472Z" fill="#F2F2F2"/>
<path d="M192.675 108.62H24.9199V113.65H192.675V108.62Z" fill="#F2F2F2"/>
<path d="M192.675 120.692H24.9199V125.722H192.675V120.692Z" fill="#F2F2F2"/>
<path d="M194.498 94.1159H26.7432V99.1461H194.498V94.1159Z" stroke="#3F3D56" stroke-miterlimit="10"/>
<path d="M194.498 106.188H26.7432V111.218H194.498V106.188Z" stroke="#3F3D56" stroke-miterlimit="10"/>
<path d="M194.498 118.261H26.7432V123.291H194.498V118.261Z" stroke="#3F3D56" stroke-miterlimit="10"/>
<path d="M58.6535 241.51C59.6606 241.51 60.4769 240.693 60.4769 239.686C60.4769 238.679 59.6606 237.863 58.6535 237.863C57.6465 237.863 56.8301 238.679 56.8301 239.686C56.8301 240.693 57.6465 241.51 58.6535 241.51Z" fill="#F86B75"/>
<path d="M64.1242 241.51C65.1313 241.51 65.9476 240.693 65.9476 239.686C65.9476 238.679 65.1313 237.863 64.1242 237.863C63.1172 237.863 62.3008 238.679 62.3008 239.686C62.3008 240.693 63.1172 241.51 64.1242 241.51Z" fill="#FAD375"/>
<path d="M69.5939 241.51C70.601 241.51 71.4174 240.693 71.4174 239.686C71.4174 238.679 70.601 237.863 69.5939 237.863C68.5869 237.863 67.7705 238.679 67.7705 239.686C67.7705 240.693 68.5869 241.51 69.5939 241.51Z" fill="#8BCC55"/>
<path d="M216.988 267.949H91.7793V306.849H216.988V267.949Z" fill="#EB5757"/>
<path d="M272.601 260.352V364.895H51.3594V233.608H231.27" fill="url(#paint1_linear)"/>
<path d="M272.601 260.352V364.895H51.3594V233.608H231.27" stroke="#3F3D56" stroke-miterlimit="10"/>
<path d="M51.3594 243.551H231.574" stroke="#3F3D56" stroke-miterlimit="10"/>
<path d="M59.2609 240.294C60.268 240.294 61.0844 239.478 61.0844 238.471C61.0844 237.463 60.268 236.647 59.2609 236.647C58.2539 236.647 57.4375 237.463 57.4375 238.471C57.4375 239.478 58.2539 240.294 59.2609 240.294Z" stroke="#3F3D56" stroke-miterlimit="10"/>
<path d="M64.7316 240.294C65.7387 240.294 66.555 239.478 66.555 238.471C66.555 237.463 65.7387 236.647 64.7316 236.647C63.7246 236.647 62.9082 237.463 62.9082 238.471C62.9082 239.478 63.7246 240.294 64.7316 240.294Z" stroke="#3F3D56" stroke-miterlimit="10"/>
<path d="M70.2013 240.294C71.2084 240.294 72.0248 239.478 72.0248 238.471C72.0248 237.463 71.2084 236.647 70.2013 236.647C69.1943 236.647 68.3779 237.463 68.3779 238.471C68.3779 239.478 69.1943 240.294 70.2013 240.294Z" stroke="#3F3D56" stroke-miterlimit="10"/>
<path d="M224.585 260.352H99.377V299.251H224.585V260.352Z" stroke="#3F3D56" stroke-miterlimit="10"/>
<path d="M238.565 136.359C239.572 136.359 240.388 135.542 240.388 134.535C240.388 133.528 239.572 132.712 238.565 132.712C237.558 132.712 236.741 133.528 236.741 134.535C236.741 135.542 237.558 136.359 238.565 136.359Z" fill="#F86B75"/>
<path d="M244.034 136.359C245.041 136.359 245.858 135.542 245.858 134.535C245.858 133.528 245.041 132.712 244.034 132.712C243.027 132.712 242.211 133.528 242.211 134.535C242.211 135.542 243.027 136.359 244.034 136.359Z" fill="#FAD375"/>
<path d="M249.505 136.359C250.512 136.359 251.328 135.542 251.328 134.535C251.328 133.528 250.512 132.712 249.505 132.712C248.498 132.712 247.682 133.528 247.682 134.535C247.682 135.542 248.498 136.359 249.505 136.359Z" fill="#8BCC55"/>
<path d="M452.513 128.457H231.271V259.744H452.513V128.457Z" fill="#C4C4C4" stroke="#3F3D56" stroke-miterlimit="10"/>
<path d="M231.271 138.4H452.513" stroke="#3F3D56" stroke-miterlimit="10"/>
<path d="M239.172 135.143C240.179 135.143 240.995 134.327 240.995 133.32C240.995 132.313 240.179 131.496 239.172 131.496C238.165 131.496 237.349 132.313 237.349 133.32C237.349 134.327 238.165 135.143 239.172 135.143Z" stroke="#3F3D56" stroke-miterlimit="10"/>
<path d="M244.643 135.143C245.65 135.143 246.466 134.327 246.466 133.32C246.466 132.313 245.65 131.496 244.643 131.496C243.636 131.496 242.819 132.313 242.819 133.32C242.819 134.327 243.636 135.143 244.643 135.143Z" stroke="#3F3D56" stroke-miterlimit="10"/>
<path d="M250.112 135.143C251.12 135.143 251.936 134.327 251.936 133.32C251.936 132.313 251.12 131.496 250.112 131.496C249.105 131.496 248.289 132.313 248.289 133.32C248.289 134.327 249.105 135.143 250.112 135.143Z" stroke="#3F3D56" stroke-miterlimit="10"/>
<path d="M268.348 200.179C278.418 200.179 286.582 192.015 286.582 181.944C286.582 171.874 278.418 163.71 268.348 163.71C258.277 163.71 250.113 171.874 250.113 181.944C250.113 192.015 258.277 200.179 268.348 200.179Z" stroke="#3F3D56" stroke-miterlimit="10"/>
<path d="M341.891 200.179C351.962 200.179 360.126 192.015 360.126 181.944C360.126 171.874 351.962 163.71 341.891 163.71C331.821 163.71 323.657 171.874 323.657 181.944C323.657 192.015 331.821 200.179 341.891 200.179Z" stroke="#3F3D56" stroke-miterlimit="10"/>
<path d="M415.436 200.179C425.507 200.179 433.671 192.015 433.671 181.944C433.671 171.874 425.507 163.71 415.436 163.71C405.366 163.71 397.202 171.874 397.202 181.944C397.202 192.015 405.366 200.179 415.436 200.179Z" stroke="#3F3D56" stroke-miterlimit="10"/>
<path d="M290.533 215.678H240.692V220.54H290.533V215.678Z" fill="#F2F2F2"/>
<path d="M364.685 215.678H314.845V220.54H364.685V215.678Z" fill="#F2F2F2"/>
<path d="M438.837 215.678H388.997V220.54H438.837V215.678Z" fill="#F2F2F2"/>
<path d="M292.963 213.854H243.123V218.717H292.963V213.854Z" stroke="#3F3D56" stroke-miterlimit="10"/>
<path d="M367.116 213.854H317.275V218.717H367.116V213.854Z" stroke="#3F3D56" stroke-miterlimit="10"/>
<path d="M441.268 213.854H391.428V218.717H441.268V213.854Z" stroke="#3F3D56" stroke-miterlimit="10"/>
<path d="M97.8573 322.044H59.5654V354.866H97.8573V322.044Z" fill="#F2F2F2"/>
<path d="M168.667 322.348H130.375V355.17H168.667V322.348Z" fill="#F2F2F2"/>
<path d="M239.476 322.652H201.185V355.474H239.476V322.652Z" fill="#F2F2F2"/>
<path d="M103.327 315.966H65.0352V348.788H103.327V315.966Z" stroke="#3F3D56" stroke-miterlimit="10"/>
<path d="M174.137 316.27H135.845V349.092H174.137V316.27Z" stroke="#3F3D56" stroke-miterlimit="10"/>
<path d="M244.946 316.574H206.654V349.396H244.946V316.574Z" stroke="#3F3D56" stroke-miterlimit="10"/>
<path d="M365.163 124.292L348.107 133.742L366.296 127.326L365.163 124.292Z" fill="#79758C"/>
<path d="M372.849 133.59C375.348 132.778 376.049 128.038 374.413 123.002C372.777 117.967 369.425 114.543 366.926 115.354C364.427 116.166 363.726 120.906 365.362 125.942C366.997 130.978 370.35 134.401 372.849 133.59Z" fill="#3F3D56"/>
<path d="M386.812 123.6C388.698 122.988 389.29 119.609 388.135 116.053C386.981 112.498 384.516 110.112 382.63 110.724C380.744 111.337 380.152 114.716 381.307 118.271C382.462 121.827 384.927 124.213 386.812 123.6Z" fill="#3F3D56"/>
<path d="M370.984 118.937L382.297 114.852L384.701 121.513L373.752 128.908L370.984 118.937Z" fill="#3F3D56"/>
<path d="M369.903 143.424L372.942 136.738C372.942 136.738 380.236 117.288 373.55 120.935C366.864 124.582 364.433 134.307 364.433 134.307L362.609 140.385L369.903 143.424Z" fill="#A0616A"/>
<path d="M453.172 244.32C453.172 244.32 442.84 264.378 439.801 264.986C436.762 265.593 436.762 246.751 436.762 246.751C436.762 246.751 442.84 241.281 445.271 241.889C447.702 242.497 453.172 244.32 453.172 244.32Z" fill="#A0616A"/>
<path d="M437.977 370.744C437.977 370.744 443.447 373.783 441.016 380.469C438.585 387.155 437.369 385.332 436.154 390.802C434.938 396.272 423.997 395.665 423.39 393.233C422.782 390.802 421.566 381.077 424.605 377.43C427.644 373.783 437.977 370.744 437.977 370.744Z" fill="#55536E"/>
<path d="M383.883 370.744C383.883 370.744 378.412 373.783 380.844 380.469C383.275 387.155 384.49 385.332 385.706 390.802C386.922 396.272 397.862 395.665 398.47 393.233C399.078 390.802 400.293 381.077 397.254 377.43C394.215 373.783 383.883 370.744 383.883 370.744Z" fill="#55536E"/>
<path d="M434.938 249.183C434.938 249.183 439.8 252.222 441.016 271.064C442.231 289.906 440.408 311.179 439.8 316.042C439.192 320.904 440.408 328.198 441.624 331.845C442.839 335.491 438.585 363.451 438.585 363.451C439.482 365.351 439.947 367.427 439.947 369.529C439.947 371.63 439.482 373.706 438.585 375.607C435.546 382.293 426.428 388.979 423.997 382.293C423.87 379.96 423.248 377.681 422.174 375.607C420.35 371.96 423.389 357.373 423.389 357.373C423.389 357.373 420.958 334.276 421.566 328.198C422.174 322.12 414.272 286.259 413.057 280.181C411.841 274.103 412.449 269.24 411.841 271.064C411.233 272.887 400.293 323.335 400.293 323.335C400.293 323.335 401.508 355.549 400.901 359.804C400.293 364.058 403.332 372.568 401.508 375.607C399.685 378.646 396.038 389.586 389.352 382.901C382.666 376.215 383.882 373.783 383.274 370.744C382.666 367.705 383.274 364.058 383.274 359.196C383.274 354.334 378.412 326.982 380.843 322.727C383.274 318.473 382.058 313.003 381.451 303.278C380.843 293.553 380.235 246.751 386.313 238.242C392.391 229.733 434.938 249.183 434.938 249.183Z" fill="#3F3D56"/>
<path d="M420.046 135.218C428.103 135.218 434.634 128.687 434.634 120.631C434.634 112.575 428.103 106.044 420.046 106.044C411.99 106.044 405.459 112.575 405.459 120.631C405.459 128.687 411.99 135.218 420.046 135.218Z" fill="#A0616A"/>
<path d="M429.468 126.405C429.468 126.405 428.86 148.286 431.899 151.933C434.938 155.58 405.764 148.894 405.764 148.894C405.764 148.894 412.45 134.914 408.195 125.797C403.94 116.68 429.468 126.405 429.468 126.405Z" fill="#A0616A"/>
<path d="M434.938 149.502C434.938 149.502 433.722 144.639 426.429 143.424C419.135 142.208 410.51 140.993 407.833 143.424C405.155 145.855 403.94 148.894 402.116 148.894H393.607L380.235 172.599C380.235 172.599 386.921 180.5 385.098 195.088C383.274 209.675 380.235 236.419 380.235 236.419C385.108 242.906 389.38 249.823 392.999 257.084C399.077 269.24 441.016 268.025 438.585 246.751C438.585 246.751 435.546 241.281 436.761 236.419C437.977 231.556 441.624 198.734 441.624 198.734L455.604 161.658C455.604 161.658 436.154 151.933 434.938 149.502Z" fill="url(#paint2_linear)"/>
<path d="M451.349 161.05H455.604C455.604 161.05 458.035 175.03 457.427 183.539C456.819 192.048 456.819 212.106 456.819 212.106C456.819 212.106 459.251 216.969 458.643 221.223C458.035 225.478 456.819 237.026 456.819 237.026C456.819 237.026 456.212 253.437 444.663 244.928C444.663 244.928 441.016 243.104 442.84 235.203C444.663 227.301 441.624 218.792 441.624 218.792C441.624 218.792 443.448 213.322 442.84 209.675C442.232 206.028 439.801 194.48 439.801 194.48L451.349 161.05Z" fill="url(#paint3_linear)"/>
<path d="M396.646 150.717L393.607 148.894C393.607 148.894 389.353 147.071 383.275 148.894C377.197 150.717 374.158 150.11 371.726 149.502C369.295 148.894 371.119 142.816 371.119 142.816C371.119 142.816 366.256 134.307 361.394 139.169C356.531 144.032 356.531 153.757 356.531 153.757C356.531 153.757 353.492 159.835 364.433 163.481C375.373 167.128 380.236 172.599 380.236 172.599H392.392L396.646 150.717Z" fill="url(#paint4_linear)"/>
<path d="M419.059 138.043C419.04 137.501 418.865 136.976 418.555 136.53C418.245 136.085 417.813 135.739 417.311 135.533C416.64 135.304 415.941 135.167 415.234 135.123C413.164 134.856 411.035 134.097 409.829 132.516C408.224 130.41 408.663 127.465 407.376 125.18C406.778 124.28 406.123 123.419 405.415 122.603C403.169 119.598 402.774 115.761 402.569 112.112C402.469 111.372 402.554 110.619 402.817 109.92C403.202 109.291 403.668 108.716 404.204 108.208C405.11 107.155 405.6 105.805 405.579 104.415C405.513 101.588 409.557 99.689 412.422 98.7129C415.286 97.7367 418.393 97.5813 421.444 97.54C423.199 97.5162 425.009 97.537 426.622 98.1777C427.549 98.5807 428.421 99.1 429.218 99.7233C432.597 102.197 435.771 105.238 436.905 109.087C437.35 110.844 437.558 112.653 437.521 114.465C437.575 115.028 437.493 115.596 437.28 116.12C436.875 116.936 435.919 117.378 435.301 118.069C434.146 119.361 434.352 121.23 434.206 122.901C434.018 124.625 433.429 126.28 432.485 127.734C431.54 129.188 430.268 130.4 428.769 131.272C428.147 131.577 427.574 131.973 427.069 132.448C426.689 132.951 426.374 133.501 426.132 134.084C424.916 136.416 421.853 137.961 419.059 138.043Z" fill="#3F3D56"/>
<path d="M117.063 6.48593L108.967 10.971L117.601 7.92583L117.063 6.48593Z" fill="#79758C"/>
<path d="M120.712 10.8992C121.898 10.5139 122.231 8.26379 121.454 5.87351C120.678 3.48323 119.087 1.85792 117.9 2.24328C116.714 2.62864 116.381 4.87875 117.158 7.26902C117.934 9.6593 119.525 11.2846 120.712 10.8992Z" fill="#3F3D56"/>
<path d="M127.339 6.15737C128.234 5.86664 128.516 4.26277 127.967 2.57504C127.419 0.887304 126.249 -0.245189 125.354 0.0455439C124.459 0.336277 124.178 1.94014 124.726 3.62787C125.274 5.31561 126.444 6.4481 127.339 6.15737Z" fill="#3F3D56"/>
<path d="M119.826 3.94346L125.196 2.00516L126.338 5.16637L121.14 8.67708L119.826 3.94346Z" fill="#3F3D56"/>
<path d="M171.765 232.591L163.669 237.076L172.303 234.031L171.765 232.591Z" fill="#79758C"/>
<path d="M175.414 237.004C176.6 236.619 176.933 234.369 176.156 231.978C175.38 229.588 173.789 227.963 172.602 228.348C171.416 228.734 171.083 230.984 171.86 233.374C172.636 235.764 174.227 237.39 175.414 237.004Z" fill="#3F3D56"/>
<path d="M182.042 232.262C182.937 231.972 183.219 230.368 182.671 228.68C182.122 226.992 180.952 225.86 180.057 226.15C179.162 226.441 178.881 228.045 179.429 229.733C179.977 231.421 181.147 232.553 182.042 232.262Z" fill="#3F3D56"/>
<path d="M174.529 230.048L179.899 228.11L181.041 231.271L175.843 234.782L174.529 230.048Z" fill="#3F3D56"/>
</g>
<defs>
<linearGradient id="paint0_linear" x1="110.925" y1="6.28754" x2="110.925" y2="137.574" gradientUnits="userSpaceOnUse">
<stop stop-color="#216EC4"/>
<stop offset="1" stop-color="#216EC4" stop-opacity="0"/>
</linearGradient>
<linearGradient id="paint1_linear" x1="161.98" y1="233.608" x2="161.98" y2="364.895" gradientUnits="userSpaceOnUse">
<stop offset="0.241819" stop-color="#3481D7"/>
<stop offset="1" stop-color="#3481D7" stop-opacity="0"/>
</linearGradient>
<linearGradient id="paint2_linear" x1="417.919" y1="142.02" x2="417.919" y2="264.832" gradientUnits="userSpaceOnUse">
<stop stop-color="#164273"/>
<stop offset="1" stop-color="#3481D7"/>
</linearGradient>
<linearGradient id="paint3_linear" x1="449.271" y1="161.05" x2="449.271" y2="247.375" gradientUnits="userSpaceOnUse">
<stop stop-color="#1A4677"/>
<stop offset="1" stop-color="#3481D7"/>
</linearGradient>
<linearGradient id="paint4_linear" x1="376.395" y1="137.668" x2="376.395" y2="172.599" gradientUnits="userSpaceOnUse">
<stop stop-color="#14549B"/>
<stop offset="1" stop-color="#114F95"/>
</linearGradient>
<clipPath id="clip0">
<rect width="506" height="412" fill="white"/>
</clipPath>
</defs>
</svg>
