<svg width="276" height="191" viewBox="0 0 276 191" fill="none" xmlns="http://www.w3.org/2000/svg">
<g clip-path="url(#clip0)">
<path d="M264.941 43.8024L153.829 90.1684L169.84 133.036L181.283 163.667L184.159 171.372L209.764 180.807L210.69 181.147L237.436 191L250.276 185.669L267.767 178.37L276 174.934L264.941 43.8024Z" fill="#F2F2F2"/>
<path d="M267.853 173.957L267.83 175.068L267.766 178.37L250.275 185.669L238.464 190.597L237.965 188.98L237.436 191L210.69 181.148L210.275 171.636V171.633L210.184 169.519L262.58 166.104L263.608 167.633L263.811 167.937L267.853 173.957Z" fill="#2F2E41"/>
<path d="M229.876 72.9029C229.876 72.9029 226.36 85.1933 225.657 85.1933C224.953 85.1933 232.338 94.7525 232.338 94.7525L243.239 100.556L247.107 84.8519C247.107 84.8519 243.591 76.3169 244.294 71.8787L229.876 72.9029Z" fill="#FFB8B8"/>
<path d="M235.503 77.6825C242.689 77.6825 248.514 72.027 248.514 65.0506C248.514 58.0743 242.689 52.4188 235.503 52.4188C228.317 52.4188 222.492 58.0743 222.492 65.0506C222.492 72.027 228.317 77.6825 235.503 77.6825Z" fill="#FFB8B8"/>
<path d="M237.261 91.3385L226.865 82.5735L220.734 85.5347L207.371 93.7283C207.371 93.7283 210.888 167.471 209.129 170.202C209.129 170.202 212.997 178.737 235.855 173.616C258.712 168.495 264.69 167.812 264.69 167.812L259.767 122.747L265.745 94.4111L245.664 80.7787L239.371 91.3385L237.261 91.3385Z" fill="#174F8A"/>
<path d="M198.58 120.016C198.58 120.016 193.305 136.062 197.173 137.769C201.041 139.476 204.206 138.793 204.206 138.793L210.184 124.796L198.58 120.016Z" fill="#FFB8B8"/>
<path d="M271.723 117.285L274.888 131.624V160.643C274.888 160.643 270.316 179.078 266.8 174.299C263.283 169.519 263.356 168.006 263.356 168.006L267.855 161.326L265.745 134.014L260.139 120.985L271.723 117.285Z" fill="#FFB8B8"/>
<path d="M247.811 52.4188C247.811 52.4188 243.591 43.5424 235.503 45.5908C227.415 47.6392 222.844 50.7118 222.492 53.7844C222.14 56.857 222.668 61.466 222.668 61.466C222.668 61.466 223.547 55.1501 229.173 56.5157C234.8 57.8813 243.591 56.8571 243.591 56.8571L244.997 69.1475C244.997 69.1475 246.58 66.9284 248.338 68.294C250.096 69.6596 253.437 55.15 247.811 52.4188Z" fill="#2F2E41"/>
<path d="M260.23 120.104L261.502 126.524L273.965 123.314L271.676 117.388L260.23 120.104Z" fill="#3F3D56"/>
<path d="M198.348 119.903L196.361 126.149L208.915 129.005L209.765 122.73L198.348 119.903Z" fill="#3F3D56"/>
<path d="M257.657 93.7283L265.745 94.4111C265.745 94.4111 274.887 118.651 273.832 119.333C272.777 120.016 260.118 124.113 258.36 123.089C256.602 122.065 257.657 93.7283 257.657 93.7283Z" fill="#174F8A"/>
<path d="M210.184 94.4111L207.371 93.7283C207.371 93.7283 202.097 100.215 200.338 107.726C198.58 115.237 196.119 122.747 197.525 122.747C198.932 122.747 211.591 127.527 211.591 127.527L210.184 94.4111Z" fill="#174F8A"/>
<path d="M238.612 96.1516C240.016 96.1516 241.155 95.0461 241.155 93.6823C241.155 92.3186 240.016 91.213 238.612 91.213C237.207 91.213 236.068 92.3186 236.068 93.6823C236.068 95.0461 237.207 96.1516 238.612 96.1516Z" fill="#3F3D56"/>
<path d="M258.249 137.342L231.081 145.657L219.992 111.509C230.461 110.083 239.517 107.312 247.16 103.193C248.577 114.841 252.197 126.233 258.249 137.342Z" fill="#E6E6E6"/>
<path d="M255.705 141.046L228.537 149.361L217.448 115.213C227.917 113.787 236.973 111.016 244.617 106.897C246.033 118.545 249.653 129.937 255.705 141.046Z" fill="white"/>
<path d="M200.338 127.868C200.338 127.868 196.118 135.379 197.173 137.769C198.228 140.159 207.019 141.524 208.074 141.524C209.129 141.524 221.789 138.793 221.789 138.793C221.789 138.793 241.129 129.917 235.503 125.479C229.876 121.04 219.327 131.624 219.327 131.624H210.887L206.316 128.551L200.338 127.868Z" fill="#FFB8B8"/>
<path d="M46.197 30.8534H0.236328V50.7997H46.197V30.8534Z" fill="#F2F2F2"/>
<path d="M167.345 95.6499H159.331V102.515H167.345V95.6499Z" fill="#3F3D56"/>
<path d="M151.317 95.6499H143.304V102.515H151.317V95.6499Z" fill="#3F3D56"/>
<path d="M183.372 80.5474H175.358V88.3275H183.372V80.5474Z" fill="#174F8A"/>
<path d="M175.357 88.3275H167.344V95.65H175.357V88.3275Z" fill="#3F3D56"/>
<path d="M159.33 88.3275H151.316V95.65H159.33V88.3275Z" fill="#3F3D56"/>
<path d="M64.3447 102.057H56.3311V108.922H64.3447V102.057Z" fill="#174F8A"/>
<path d="M136.468 94.7346H128.454V102.057H136.468V94.7346Z" fill="#3F3D56"/>
<path d="M88.3857 94.7346H80.3721V102.057H88.3857V94.7346Z" fill="#3F3D56"/>
<path d="M80.3721 86.9545H72.3584V94.7346H80.3721V86.9545Z" fill="#3F3D56"/>
<path d="M120.44 94.7346H112.427V102.057H120.44V94.7346Z" fill="#3F3D56"/>
<path d="M112.427 86.9545H104.413V94.7346H112.427V86.9545Z" fill="#3F3D56"/>
<path d="M104.413 94.7346H96.3994V102.057H104.413V94.7346Z" fill="#3F3D56"/>
<path d="M72.3584 94.7346H64.3447V102.057H72.3584V94.7346Z" fill="#3F3D56"/>
<path d="M128.454 86.9545H120.44V94.7346H128.454V86.9545Z" fill="#174F8A"/>
<path d="M156.677 74.9398L152.514 70.6063L156.977 66.5643L161.141 70.8978L156.677 74.9398ZM153.177 70.6287L156.7 74.2955L160.477 70.8754L156.954 67.2086L153.177 70.6287Z" fill="#3F3D56"/>
<path d="M100.326 57.1116H94.2227V51.1857H100.326V57.1116ZM94.6922 56.6558H99.857V51.6415H94.6922V56.6558Z" fill="#3F3D56"/>
<path d="M213.696 45.6702H207.592V39.7443H213.696V45.6702ZM208.061 45.2144H213.226V40.2001H208.061V45.2144Z" fill="#3F3D56"/>
<path d="M59.9685 106.192L59.6078 105.85C61.2669 104.023 62.5245 101.887 63.3036 99.5724C64.53 95.989 65.1292 90.3296 61.0179 83.7188C56.8115 76.9548 56.6222 71.461 57.204 68.0433C57.8372 64.3245 59.4526 62.2399 59.521 62.1531L59.9216 62.4502C59.9055 62.4707 58.3042 64.5441 57.6965 68.152C57.1355 71.483 57.3312 76.8437 61.4494 83.4657C65.6658 90.2456 65.0412 96.0621 63.7748 99.7476C62.4026 103.741 60.0674 106.093 59.9685 106.192Z" fill="#3F3D56"/>
<path d="M123.606 90.6313L123.245 90.2895C124.905 88.4631 126.162 86.327 126.941 84.0122C128.168 80.4288 128.767 74.7694 124.656 68.1586C120.449 61.3947 120.26 55.9008 120.842 52.4831C121.475 48.7643 123.09 46.6798 123.159 46.5929L123.559 46.8901C123.543 46.9105 121.942 48.9839 121.334 52.5918C120.773 55.9228 120.969 61.2835 125.087 67.9055C129.303 74.6855 128.679 80.5019 127.413 84.1874C126.04 88.1806 123.705 90.5331 123.606 90.6313Z" fill="#3F3D56"/>
<path d="M178.995 84.6818L178.634 84.3399C180.293 82.5135 181.551 80.3775 182.33 78.0626C183.556 74.4792 184.156 68.8199 180.044 62.209C175.838 55.4451 175.649 49.9512 176.23 46.5335C176.864 42.8147 178.479 40.7302 178.547 40.6433L178.948 40.9405C178.932 40.9609 177.331 43.0343 176.723 46.6423C176.162 49.9732 176.358 55.334 180.476 61.9559C184.692 68.7359 184.068 74.5524 182.801 78.2378C181.429 82.231 179.094 84.5835 178.995 84.6818Z" fill="#3F3D56"/>
<path d="M34.3076 37.1494H12.126V37.6389H34.3076V37.1494Z" fill="#3F3D56"/>
<path d="M34.3076 40.5818H12.126V41.0712H34.3076V40.5818Z" fill="#3F3D56"/>
<path d="M34.3076 44.0143H12.126V44.5037H34.3076V44.0143Z" fill="#3F3D56"/>
<path d="M158.519 4.42712H136.337V4.91656H158.519V4.42712Z" fill="#3F3D56"/>
<path d="M158.519 7.8595H136.337V8.34893H158.519V7.8595Z" fill="#3F3D56"/>
<path d="M158.519 11.292H136.337V11.7814H158.519V11.292Z" fill="#3F3D56"/>
<path d="M210.607 80.3979H188.426V80.8874H210.607V80.3979Z" fill="#3F3D56"/>
<path d="M210.607 83.8303H188.426V84.3197H210.607V83.8303Z" fill="#3F3D56"/>
<path d="M210.607 87.2627H188.426V87.7521H210.607V87.2627Z" fill="#3F3D56"/>
<path d="M71.3115 114.722H49.1299V115.211H71.3115V114.722Z" fill="#3F3D56"/>
<path d="M71.3115 118.154H49.1299V118.644H71.3115V118.154Z" fill="#3F3D56"/>
<path d="M71.3115 121.587H49.1299V122.076H71.3115V121.587Z" fill="#3F3D56"/>
<path d="M32.4932 25.3131C36.3255 16.967 42.1017 11.4768 49.6611 8.99507C55.2737 7.15237 61.7645 6.97824 68.9531 8.47734C74.254 9.5911 79.3409 11.5094 84.0263 14.1616C108.982 28.2231 124.411 28.3481 132.959 25.9768C142.333 23.3769 145.763 17.2764 145.797 17.2151L146.213 17.4294C146.179 17.4923 142.671 23.7524 133.108 26.4118C127.594 27.9449 121.153 28.0082 113.962 26.5999C105.012 24.8472 94.8608 20.7955 83.7896 14.5575C79.147 11.9295 74.1067 10.0285 68.8543 8.92476C57.064 6.46608 41.2597 7.34574 32.9235 25.4994L32.4932 25.3131Z" fill="#2F2E41"/>
<path d="M60.3386 62.47C65.0247 62.47 68.8236 58.7818 68.8236 54.2322C68.8236 49.6826 65.0247 45.9944 60.3386 45.9944C55.6524 45.9944 51.8535 49.6826 51.8535 54.2322C51.8535 58.7818 55.6524 62.47 60.3386 62.47Z" fill="#3F3D56"/>
<path d="M124.448 48.0538C129.134 48.0538 132.933 44.3657 132.933 39.816C132.933 35.2664 129.134 31.5782 124.448 31.5782C119.762 31.5782 115.963 35.2664 115.963 39.816C115.963 44.3657 119.762 48.0538 124.448 48.0538Z" fill="#3F3D56"/>
<path d="M179.836 40.7313C184.522 40.7313 188.321 37.0431 188.321 32.4935C188.321 27.9439 184.522 24.2557 179.836 24.2557C175.149 24.2557 171.351 27.9439 171.351 32.4935C171.351 37.0431 175.149 40.7313 179.836 40.7313Z" fill="#3F3D56"/>
<path d="M52.5602 51.0286H0V24.9423H52.5602V51.0286ZM0.471392 50.571H52.0888V25.3999H0.471392V50.571Z" fill="#3F3D56"/>
<path d="M112.427 13.6913H66.4658V33.6376H112.427V13.6913Z" fill="#F2F2F2"/>
<path d="M100.538 19.9873H78.3564V20.4767H100.538V19.9873Z" fill="#3F3D56"/>
<path d="M100.538 23.4198H78.3564V23.9092H100.538V23.4198Z" fill="#3F3D56"/>
<path d="M99.83 26.1656H77.6484V26.6551H99.83V26.1656Z" fill="#3F3D56"/>
<path d="M118.791 33.8665H66.2305V7.78015H118.791V33.8665ZM66.7019 33.4089H118.319V8.23781H66.7019V33.4089Z" fill="#3F3D56"/>
<path d="M230.982 5.91125H185.021V25.8576H230.982V5.91125Z" fill="#F2F2F2"/>
<path d="M219.093 12.2073H196.911V12.6967H219.093V12.2073Z" fill="#3F3D56"/>
<path d="M219.093 15.6396H196.911V16.1291H219.093V15.6396Z" fill="#3F3D56"/>
<path d="M219.093 19.072H196.911V19.5615H219.093V19.072Z" fill="#3F3D56"/>
<path d="M237.346 26.0864H184.786V0H237.346V26.0864ZM185.258 25.6287H236.875V0.457655H185.258V25.6287Z" fill="#3F3D56"/>
</g>
<defs>
<clipPath id="clip0">
<rect width="276" height="191" fill="white"/>
</clipPath>
</defs>
</svg>
